<?xml version="1.0" encoding="UTF-8" standalone="no"?>
<!DOCTYPE svg PUBLIC "-//W3C//DTD SVG 1.1//EN"
 "http://www.w3.org/Graphics/SVG/1.1/DTD/svg11.dtd">
<!-- Generated by graphviz version 2.40.1 (20161225.0304)
 -->
<!-- Title: dependencies Pages: 1 -->
<svg width="809pt" height="284pt"
 viewBox="0.00 0.00 809.00 284.00" xmlns="http://www.w3.org/2000/svg" xmlns:xlink="http://www.w3.org/1999/xlink">
<g id="graph0" class="graph" transform="scale(1 1) rotate(0) translate(4 280)">
<title>dependencies</title>
<polygon fill="#ffffff" stroke="transparent" points="-4,4 -4,-280 805,-280 805,4 -4,4"/>
<text text-anchor="start" x="379.5091" y="-42.4" font-family="sans-serif" font-weight="bold" font-size="14.00" fill="#000000">Legend</text>
<polygon fill="#ffffb3" stroke="transparent" points="166.5,-10 166.5,-30 186.5,-30 186.5,-10 166.5,-10"/>
<text text-anchor="start" x="190.129" y="-15.4" font-family="sans-serif" font-size="14.00" fill="#000000"> &#160;Declarations</text>
<polygon fill="#8dd3c7" stroke="transparent" points="279.5,-10 279.5,-30 299.5,-30 299.5,-10 279.5,-10"/>
<text text-anchor="start" x="303.2251" y="-15.4" font-family="sans-serif" font-size="14.00" fill="#000000"> &#160;Module</text>
<polygon fill="#80b1d3" stroke="transparent" points="365.5,-10 365.5,-30 385.5,-30 385.5,-10 365.5,-10"/>
<text text-anchor="start" x="389.2812" y="-15.4" font-family="sans-serif" font-size="14.00" fill="#000000"> &#160;Bootstrap</text>
<polygon fill="#fdb462" stroke="transparent" points="462.5,-10 462.5,-30 482.5,-30 482.5,-10 462.5,-10"/>
<text text-anchor="start" x="486.1732" y="-15.4" font-family="sans-serif" font-size="14.00" fill="#000000"> &#160;Providers</text>
<polygon fill="#fb8072" stroke="transparent" points="558.5,-10 558.5,-30 578.5,-30 578.5,-10 558.5,-10"/>
<text text-anchor="start" x="582.2258" y="-15.4" font-family="sans-serif" font-size="14.00" fill="#000000"> &#160;Exports</text>
<g id="clust1" class="cluster">
<title>cluster_AppServerModule</title>
<polygon fill="none" stroke="#000000" stroke-dasharray="1,5" points="8,-70 8,-268 793,-268 793,-70 8,-70"/>
</g>
<g id="clust3" class="cluster">
<title>cluster_AppServerModule_imports</title>
<polygon fill="none" stroke="#000000" points="16,-78 16,-130 785,-130 785,-78 16,-78"/>
</g>
<g id="clust5" class="cluster">
<title>cluster_AppServerModule_bootstrap</title>
<polygon fill="none" stroke="#000000" points="413,-208 413,-260 537,-260 537,-208 413,-208"/>
</g>
<!-- AppModule -->
<g id="node1" class="node">
<title>AppModule</title>
<polygon fill="#8dd3c7" stroke="#000000" points="776.6571,-122 773.6571,-126 752.6571,-126 749.6571,-122 693.3429,-122 693.3429,-86 776.6571,-86 776.6571,-122"/>
<text text-anchor="middle" x="735" y="-99.8" font-family="Times,serif" font-size="14.00" fill="#000000">AppModule</text>
</g>
<!-- AppServerModule -->
<g id="node6" class="node">
<title>AppServerModule</title>
<polygon fill="#8dd3c7" stroke="#000000" points="535.1895,-187 532.1895,-191 511.1895,-191 508.1895,-187 414.8105,-187 414.8105,-151 535.1895,-151 535.1895,-187"/>
<text text-anchor="middle" x="475" y="-164.8" font-family="Times,serif" font-size="14.00" fill="#000000">AppServerModule</text>
</g>
<!-- AppModule&#45;&gt;AppServerModule -->
<g id="edge1" class="edge">
<title>AppModule&#45;&gt;AppServerModule</title>
<path fill="none" stroke="#000000" d="M735,-122.2843C735,-143.3211 735,-175 735,-175 735,-175 545.3027,-175 545.3027,-175"/>
<polygon fill="#000000" stroke="#000000" points="545.3028,-171.5001 535.3027,-175 545.3027,-178.5001 545.3028,-171.5001"/>
</g>
<!-- ServerModule -->
<g id="node2" class="node">
<title>ServerModule</title>
<polygon fill="#8dd3c7" stroke="#000000" points="675.0828,-122 672.0828,-126 651.0828,-126 648.0828,-122 578.9172,-122 578.9172,-86 675.0828,-86 675.0828,-122"/>
<text text-anchor="middle" x="627" y="-99.8" font-family="Times,serif" font-size="14.00" fill="#000000">ServerModule</text>
</g>
<!-- ServerModule&#45;&gt;AppServerModule -->
<g id="edge2" class="edge">
<title>ServerModule&#45;&gt;AppServerModule</title>
<path fill="none" stroke="#000000" d="M627,-122.0225C627,-139.3734 627,-163 627,-163 627,-163 545.5112,-163 545.5112,-163"/>
<polygon fill="#000000" stroke="#000000" points="545.5112,-159.5001 535.5112,-163 545.5111,-166.5001 545.5112,-159.5001"/>
</g>
<!-- ServerTransferStateModule -->
<g id="node3" class="node">
<title>ServerTransferStateModule</title>
<polygon fill="#8dd3c7" stroke="#000000" points="560.9847,-122 557.9847,-126 536.9847,-126 533.9847,-122 389.0153,-122 389.0153,-86 560.9847,-86 560.9847,-122"/>
<text text-anchor="middle" x="475" y="-99.8" font-family="Times,serif" font-size="14.00" fill="#000000">ServerTransferStateModule</text>
</g>
<!-- ServerTransferStateModule&#45;&gt;AppServerModule -->
<g id="edge3" class="edge">
<title>ServerTransferStateModule&#45;&gt;AppServerModule</title>
<path fill="none" stroke="#000000" d="M475,-122.1061C475,-122.1061 475,-140.991 475,-140.991"/>
<polygon fill="#000000" stroke="#000000" points="471.5001,-140.9909 475,-150.991 478.5001,-140.991 471.5001,-140.9909"/>
</g>
<!-- FlexLayoutServerModule -->
<g id="node4" class="node">
<title>FlexLayoutServerModule</title>
<polygon fill="#8dd3c7" stroke="#000000" points="371.1288,-122 368.1288,-126 347.1288,-126 344.1288,-122 210.8712,-122 210.8712,-86 371.1288,-86 371.1288,-122"/>
<text text-anchor="middle" x="291" y="-99.8" font-family="Times,serif" font-size="14.00" fill="#000000">FlexLayoutServerModule</text>
</g>
<!-- FlexLayoutServerModule&#45;&gt;AppServerModule -->
<g id="edge4" class="edge">
<title>FlexLayoutServerModule&#45;&gt;AppServerModule</title>
<path fill="none" stroke="#000000" d="M291,-122.0225C291,-139.3734 291,-163 291,-163 291,-163 404.7515,-163 404.7515,-163"/>
<polygon fill="#000000" stroke="#000000" points="404.7516,-166.5001 414.7515,-163 404.7515,-159.5001 404.7516,-166.5001"/>
</g>
<!-- ModuleMapLoaderModule -->
<g id="node5" class="node">
<title>ModuleMapLoaderModule</title>
<polygon fill="#8dd3c7" stroke="#000000" points="192.4017,-122 189.4017,-126 168.4017,-126 165.4017,-122 23.5983,-122 23.5983,-86 192.4017,-86 192.4017,-122"/>
<text text-anchor="middle" x="108" y="-99.8" font-family="Times,serif" font-size="14.00" fill="#000000">ModuleMapLoaderModule</text>
</g>
<!-- ModuleMapLoaderModule&#45;&gt;AppServerModule -->
<g id="edge5" class="edge">
<title>ModuleMapLoaderModule&#45;&gt;AppServerModule</title>
<path fill="none" stroke="#000000" d="M108,-122.2843C108,-143.3211 108,-175 108,-175 108,-175 404.8084,-175 404.8084,-175"/>
<polygon fill="#000000" stroke="#000000" points="404.8084,-178.5001 414.8084,-175 404.8083,-171.5001 404.8084,-178.5001"/>
</g>
<!-- AppComponent  -->
<g id="node7" class="node">
<title>AppComponent </title>
<polygon fill="#80b1d3" stroke="#000000" points="529.439,-252 420.561,-252 420.561,-216 529.439,-216 529.439,-252"/>
<text text-anchor="middle" x="475" y="-229.8" font-family="Times,serif" font-size="14.00" fill="#000000">AppComponent </text>
</g>
<!-- AppServerModule&#45;&gt;AppComponent  -->
<g id="edge6" class="edge">
<title>AppServerModule&#45;&gt;AppComponent </title>
<path fill="none" stroke="#000000" stroke-dasharray="1,5" d="M475,-187.1061C475,-187.1061 475,-205.991 475,-205.991"/>
<polygon fill="#000000" stroke="#000000" points="471.5001,-205.9909 475,-215.991 478.5001,-205.991 471.5001,-205.9909"/>
</g>
</g>
</svg>
