<?xml version="1.0" encoding="UTF-8" standalone="no"?>
<!DOCTYPE svg PUBLIC "-//W3C//DTD SVG 1.1//EN"
 "http://www.w3.org/Graphics/SVG/1.1/DTD/svg11.dtd">
<!-- Generated by graphviz version 2.40.1 (20161225.0304)
 -->
<!-- Title: dependencies Pages: 1 -->
<svg width="6000pt" height="211pt"
 viewBox="0.00 0.00 6000.00 211.00" xmlns="http://www.w3.org/2000/svg" xmlns:xlink="http://www.w3.org/1999/xlink">
<g id="graph0" class="graph" transform="scale(1 1) rotate(0) translate(4 207)">
<title>dependencies</title>
<polygon fill="#ffffff" stroke="transparent" points="-4,4 -4,-207 5996,-207 5996,4 -4,4"/>
<text text-anchor="start" x="2975.0091" y="-42.4" font-family="sans-serif" font-weight="bold" font-size="14.00" fill="#000000">Legend</text>
<polygon fill="#ffffb3" stroke="transparent" points="2762,-10 2762,-30 2782,-30 2782,-10 2762,-10"/>
<text text-anchor="start" x="2785.629" y="-15.4" font-family="sans-serif" font-size="14.00" fill="#000000"> &#160;Declarations</text>
<polygon fill="#8dd3c7" stroke="transparent" points="2875,-10 2875,-30 2895,-30 2895,-10 2875,-10"/>
<text text-anchor="start" x="2898.7251" y="-15.4" font-family="sans-serif" font-size="14.00" fill="#000000"> &#160;Module</text>
<polygon fill="#80b1d3" stroke="transparent" points="2961,-10 2961,-30 2981,-30 2981,-10 2961,-10"/>
<text text-anchor="start" x="2984.7812" y="-15.4" font-family="sans-serif" font-size="14.00" fill="#000000"> &#160;Bootstrap</text>
<polygon fill="#fdb462" stroke="transparent" points="3058,-10 3058,-30 3078,-30 3078,-10 3058,-10"/>
<text text-anchor="start" x="3081.6732" y="-15.4" font-family="sans-serif" font-size="14.00" fill="#000000"> &#160;Providers</text>
<polygon fill="#fb8072" stroke="transparent" points="3154,-10 3154,-30 3174,-30 3174,-10 3154,-10"/>
<text text-anchor="start" x="3177.7258" y="-15.4" font-family="sans-serif" font-size="14.00" fill="#000000"> &#160;Exports</text>
<g id="clust1" class="cluster">
<title>cluster_MaterialModule</title>
<polygon fill="none" stroke="#000000" stroke-dasharray="1,5" points="8,-70 8,-195 5984,-195 5984,-70 8,-70"/>
</g>
<g id="clust4" class="cluster">
<title>cluster_MaterialModule_exports</title>
<polygon fill="none" stroke="#000000" points="16,-135 16,-187 5976,-187 5976,-135 16,-135"/>
</g>
<!-- CdkTableModule  -->
<g id="node1" class="node">
<title>CdkTableModule </title>
<polygon fill="#fb8072" stroke="#000000" points="5968.2591,-179 5849.7409,-179 5849.7409,-143 5968.2591,-143 5968.2591,-179"/>
<text text-anchor="middle" x="5909" y="-156.8" font-family="Times,serif" font-size="14.00" fill="#000000">CdkTableModule </text>
</g>
<!-- OverlayModule  -->
<g id="node2" class="node">
<title>OverlayModule </title>
<polygon fill="#fb8072" stroke="#000000" points="5832.1369,-179 5723.8631,-179 5723.8631,-143 5832.1369,-143 5832.1369,-179"/>
<text text-anchor="middle" x="5778" y="-156.8" font-family="Times,serif" font-size="14.00" fill="#000000">OverlayModule </text>
</g>
<!-- MatAutocompleteModule  -->
<g id="node3" class="node">
<title>MatAutocompleteModule </title>
<polygon fill="#fb8072" stroke="#000000" points="5705.4124,-179 5540.5876,-179 5540.5876,-143 5705.4124,-143 5705.4124,-179"/>
<text text-anchor="middle" x="5623" y="-156.8" font-family="Times,serif" font-size="14.00" fill="#000000">MatAutocompleteModule </text>
</g>
<!-- MatButtonModule  -->
<g id="node4" class="node">
<title>MatButtonModule </title>
<polygon fill="#fb8072" stroke="#000000" points="5522.7177,-179 5399.2823,-179 5399.2823,-143 5522.7177,-143 5522.7177,-179"/>
<text text-anchor="middle" x="5461" y="-156.8" font-family="Times,serif" font-size="14.00" fill="#000000">MatButtonModule </text>
</g>
<!-- MatButtonToggleModule  -->
<g id="node5" class="node">
<title>MatButtonToggleModule </title>
<polygon fill="#fb8072" stroke="#000000" points="5380.8756,-179 5217.1244,-179 5217.1244,-143 5380.8756,-143 5380.8756,-179"/>
<text text-anchor="middle" x="5299" y="-156.8" font-family="Times,serif" font-size="14.00" fill="#000000">MatButtonToggleModule </text>
</g>
<!-- MatCardModule  -->
<g id="node6" class="node">
<title>MatCardModule </title>
<polygon fill="#fb8072" stroke="#000000" points="5199.3116,-179 5086.6884,-179 5086.6884,-143 5199.3116,-143 5199.3116,-179"/>
<text text-anchor="middle" x="5143" y="-156.8" font-family="Times,serif" font-size="14.00" fill="#000000">MatCardModule </text>
</g>
<!-- MatCheckboxModule  -->
<g id="node7" class="node">
<title>MatCheckboxModule </title>
<polygon fill="#fb8072" stroke="#000000" points="5068.3659,-179 4925.6341,-179 4925.6341,-143 5068.3659,-143 5068.3659,-179"/>
<text text-anchor="middle" x="4997" y="-156.8" font-family="Times,serif" font-size="14.00" fill="#000000">MatCheckboxModule </text>
</g>
<!-- MatChipsModule  -->
<g id="node8" class="node">
<title>MatChipsModule </title>
<polygon fill="#fb8072" stroke="#000000" points="4908.2717,-179 4789.7283,-179 4789.7283,-143 4908.2717,-143 4908.2717,-179"/>
<text text-anchor="middle" x="4849" y="-156.8" font-family="Times,serif" font-size="14.00" fill="#000000">MatChipsModule </text>
</g>
<!-- MatCommonModule  -->
<g id="node9" class="node">
<title>MatCommonModule </title>
<polygon fill="#fb8072" stroke="#000000" points="4771.7177,-179 4634.2823,-179 4634.2823,-143 4771.7177,-143 4771.7177,-179"/>
<text text-anchor="middle" x="4703" y="-156.8" font-family="Times,serif" font-size="14.00" fill="#000000">MatCommonModule </text>
</g>
<!-- MatDatepickerModule  -->
<g id="node10" class="node">
<title>MatDatepickerModule </title>
<polygon fill="#fb8072" stroke="#000000" points="4616.5064,-179 4469.4936,-179 4469.4936,-143 4616.5064,-143 4616.5064,-179"/>
<text text-anchor="middle" x="4543" y="-156.8" font-family="Times,serif" font-size="14.00" fill="#000000">MatDatepickerModule </text>
</g>
<!-- MatDialogModule  -->
<g id="node11" class="node">
<title>MatDialogModule </title>
<polygon fill="#fb8072" stroke="#000000" points="4451.7024,-179 4328.2976,-179 4328.2976,-143 4451.7024,-143 4451.7024,-179"/>
<text text-anchor="middle" x="4390" y="-156.8" font-family="Times,serif" font-size="14.00" fill="#000000">MatDialogModule </text>
</g>
<!-- MatDividerModule  -->
<g id="node12" class="node">
<title>MatDividerModule </title>
<polygon fill="#fb8072" stroke="#000000" points="4310.3631,-179 4181.6369,-179 4181.6369,-143 4310.3631,-143 4310.3631,-179"/>
<text text-anchor="middle" x="4246" y="-156.8" font-family="Times,serif" font-size="14.00" fill="#000000">MatDividerModule </text>
</g>
<!-- MatExpansionModule  -->
<g id="node13" class="node">
<title>MatExpansionModule </title>
<polygon fill="#fb8072" stroke="#000000" points="4163.2023,-179 4018.7977,-179 4018.7977,-143 4163.2023,-143 4163.2023,-179"/>
<text text-anchor="middle" x="4091" y="-156.8" font-family="Times,serif" font-size="14.00" fill="#000000">MatExpansionModule </text>
</g>
<!-- MatFormFieldModule  -->
<g id="node14" class="node">
<title>MatFormFieldModule </title>
<polygon fill="#fb8072" stroke="#000000" points="4000.2121,-179 3855.7879,-179 3855.7879,-143 4000.2121,-143 4000.2121,-179"/>
<text text-anchor="middle" x="3928" y="-156.8" font-family="Times,serif" font-size="14.00" fill="#000000">MatFormFieldModule </text>
</g>
<!-- MatGridListModule  -->
<g id="node15" class="node">
<title>MatGridListModule </title>
<polygon fill="#fb8072" stroke="#000000" points="3837.5358,-179 3704.4642,-179 3704.4642,-143 3837.5358,-143 3837.5358,-179"/>
<text text-anchor="middle" x="3771" y="-156.8" font-family="Times,serif" font-size="14.00" fill="#000000">MatGridListModule </text>
</g>
<!-- MatIconModule  -->
<g id="node16" class="node">
<title>MatIconModule </title>
<polygon fill="#fb8072" stroke="#000000" points="3686.4758,-179 3575.5242,-179 3575.5242,-143 3686.4758,-143 3686.4758,-179"/>
<text text-anchor="middle" x="3631" y="-156.8" font-family="Times,serif" font-size="14.00" fill="#000000">MatIconModule </text>
</g>
<!-- MatInputModule  -->
<g id="node17" class="node">
<title>MatInputModule </title>
<polygon fill="#fb8072" stroke="#000000" points="3557.6509,-179 3442.3491,-179 3442.3491,-143 3557.6509,-143 3557.6509,-179"/>
<text text-anchor="middle" x="3500" y="-156.8" font-family="Times,serif" font-size="14.00" fill="#000000">MatInputModule </text>
</g>
<!-- MatLineModule  -->
<g id="node18" class="node">
<title>MatLineModule </title>
<polygon fill="#fb8072" stroke="#000000" points="3424.7577,-179 3313.2423,-179 3313.2423,-143 3424.7577,-143 3424.7577,-179"/>
<text text-anchor="middle" x="3369" y="-156.8" font-family="Times,serif" font-size="14.00" fill="#000000">MatLineModule </text>
</g>
<!-- MatListModule  -->
<g id="node19" class="node">
<title>MatListModule </title>
<polygon fill="#fb8072" stroke="#000000" points="3295.8787,-179 3188.1213,-179 3188.1213,-143 3295.8787,-143 3295.8787,-179"/>
<text text-anchor="middle" x="3242" y="-156.8" font-family="Times,serif" font-size="14.00" fill="#000000">MatListModule </text>
</g>
<!-- MatMenuModule  -->
<g id="node20" class="node">
<title>MatMenuModule </title>
<polygon fill="#fb8072" stroke="#000000" points="3170.2591,-179 3051.7409,-179 3051.7409,-143 3170.2591,-143 3170.2591,-179"/>
<text text-anchor="middle" x="3111" y="-156.8" font-family="Times,serif" font-size="14.00" fill="#000000">MatMenuModule </text>
</g>
<!-- MatNativeDateModule  -->
<g id="node21" class="node">
<title>MatNativeDateModule </title>
<polygon fill="#fb8072" stroke="#000000" points="3033.8434,-179 2884.1566,-179 2884.1566,-143 3033.8434,-143 3033.8434,-179"/>
<text text-anchor="middle" x="2959" y="-156.8" font-family="Times,serif" font-size="14.00" fill="#000000">MatNativeDateModule </text>
</g>
<!-- MatOptionModule  -->
<g id="node22" class="node">
<title>MatOptionModule </title>
<polygon fill="#fb8072" stroke="#000000" points="2866.4884,-179 2741.5116,-179 2741.5116,-143 2866.4884,-143 2866.4884,-179"/>
<text text-anchor="middle" x="2804" y="-156.8" font-family="Times,serif" font-size="14.00" fill="#000000">MatOptionModule </text>
</g>
<!-- MatPaginatorModule  -->
<g id="node23" class="node">
<title>MatPaginatorModule </title>
<polygon fill="#fb8072" stroke="#000000" points="2723.7534,-179 2584.2466,-179 2584.2466,-143 2723.7534,-143 2723.7534,-179"/>
<text text-anchor="middle" x="2654" y="-156.8" font-family="Times,serif" font-size="14.00" fill="#000000">MatPaginatorModule </text>
</g>
<!-- MatProgressBarModule  -->
<g id="node24" class="node">
<title>MatProgressBarModule </title>
<polygon fill="#fb8072" stroke="#000000" points="2566.019,-179 2411.981,-179 2411.981,-143 2566.019,-143 2566.019,-179"/>
<text text-anchor="middle" x="2489" y="-156.8" font-family="Times,serif" font-size="14.00" fill="#000000">MatProgressBarModule </text>
</g>
<!-- MatProgressSpinnerModule  -->
<g id="node25" class="node">
<title>MatProgressSpinnerModule </title>
<polygon fill="#fb8072" stroke="#000000" points="2393.856,-179 2216.144,-179 2216.144,-143 2393.856,-143 2393.856,-179"/>
<text text-anchor="middle" x="2305" y="-156.8" font-family="Times,serif" font-size="14.00" fill="#000000">MatProgressSpinnerModule </text>
</g>
<!-- MatPseudoCheckboxModule  -->
<g id="node26" class="node">
<title>MatPseudoCheckboxModule </title>
<polygon fill="#fb8072" stroke="#000000" points="2198.3073,-179 2015.6927,-179 2015.6927,-143 2198.3073,-143 2198.3073,-179"/>
<text text-anchor="middle" x="2107" y="-156.8" font-family="Times,serif" font-size="14.00" fill="#000000">MatPseudoCheckboxModule </text>
</g>
<!-- MatRadioModule  -->
<g id="node27" class="node">
<title>MatRadioModule </title>
<polygon fill="#fb8072" stroke="#000000" points="1997.5414,-179 1878.4586,-179 1878.4586,-143 1997.5414,-143 1997.5414,-179"/>
<text text-anchor="middle" x="1938" y="-156.8" font-family="Times,serif" font-size="14.00" fill="#000000">MatRadioModule </text>
</g>
<!-- MatRippleModule  -->
<g id="node28" class="node">
<title>MatRippleModule </title>
<polygon fill="#fb8072" stroke="#000000" points="1860.432,-179 1737.568,-179 1737.568,-143 1860.432,-143 1860.432,-179"/>
<text text-anchor="middle" x="1799" y="-156.8" font-family="Times,serif" font-size="14.00" fill="#000000">MatRippleModule </text>
</g>
<!-- MatSelectModule  -->
<g id="node29" class="node">
<title>MatSelectModule </title>
<polygon fill="#fb8072" stroke="#000000" points="1719.8074,-179 1600.1926,-179 1600.1926,-143 1719.8074,-143 1719.8074,-179"/>
<text text-anchor="middle" x="1660" y="-156.8" font-family="Times,serif" font-size="14.00" fill="#000000">MatSelectModule </text>
</g>
<!-- MatSidenavModule  -->
<g id="node30" class="node">
<title>MatSidenavModule </title>
<polygon fill="#fb8072" stroke="#000000" points="1582.2023,-179 1451.7977,-179 1451.7977,-143 1582.2023,-143 1582.2023,-179"/>
<text text-anchor="middle" x="1517" y="-156.8" font-family="Times,serif" font-size="14.00" fill="#000000">MatSidenavModule </text>
</g>
<!-- MatSlideToggleModule  -->
<g id="node31" class="node">
<title>MatSlideToggleModule </title>
<polygon fill="#fb8072" stroke="#000000" points="1434.0358,-179 1279.9642,-179 1279.9642,-143 1434.0358,-143 1434.0358,-179"/>
<text text-anchor="middle" x="1357" y="-156.8" font-family="Times,serif" font-size="14.00" fill="#000000">MatSlideToggleModule </text>
</g>
<!-- MatSliderModule  -->
<g id="node32" class="node">
<title>MatSliderModule </title>
<polygon fill="#fb8072" stroke="#000000" points="1261.5386,-179 1142.4614,-179 1142.4614,-143 1261.5386,-143 1261.5386,-179"/>
<text text-anchor="middle" x="1202" y="-156.8" font-family="Times,serif" font-size="14.00" fill="#000000">MatSliderModule </text>
</g>
<!-- MatSnackBarModule  -->
<g id="node33" class="node">
<title>MatSnackBarModule </title>
<polygon fill="#fb8072" stroke="#000000" points="1124.0232,-179 983.9768,-179 983.9768,-143 1124.0232,-143 1124.0232,-179"/>
<text text-anchor="middle" x="1054" y="-156.8" font-family="Times,serif" font-size="14.00" fill="#000000">MatSnackBarModule </text>
</g>
<!-- MatSortModule  -->
<g id="node34" class="node">
<title>MatSortModule </title>
<polygon fill="#fb8072" stroke="#000000" points="966.4334,-179 857.5666,-179 857.5666,-143 966.4334,-143 966.4334,-179"/>
<text text-anchor="middle" x="912" y="-156.8" font-family="Times,serif" font-size="14.00" fill="#000000">MatSortModule </text>
</g>
<!-- MatTableModule  -->
<g id="node35" class="node">
<title>MatTableModule </title>
<polygon fill="#fb8072" stroke="#000000" points="839.973,-179 722.027,-179 722.027,-143 839.973,-143 839.973,-179"/>
<text text-anchor="middle" x="781" y="-156.8" font-family="Times,serif" font-size="14.00" fill="#000000">MatTableModule </text>
</g>
<!-- MatTabsModule  -->
<g id="node36" class="node">
<title>MatTabsModule </title>
<polygon fill="#fb8072" stroke="#000000" points="704.3116,-179 591.6884,-179 591.6884,-143 704.3116,-143 704.3116,-179"/>
<text text-anchor="middle" x="648" y="-156.8" font-family="Times,serif" font-size="14.00" fill="#000000">MatTabsModule </text>
</g>
<!-- MatToolbarModule  -->
<g id="node37" class="node">
<title>MatToolbarModule </title>
<polygon fill="#fb8072" stroke="#000000" points="573.918,-179 444.082,-179 444.082,-143 573.918,-143 573.918,-179"/>
<text text-anchor="middle" x="509" y="-156.8" font-family="Times,serif" font-size="14.00" fill="#000000">MatToolbarModule </text>
</g>
<!-- MatTooltipModule  -->
<g id="node38" class="node">
<title>MatTooltipModule </title>
<polygon fill="#fb8072" stroke="#000000" points="426.3241,-179 299.6759,-179 299.6759,-143 426.3241,-143 426.3241,-179"/>
<text text-anchor="middle" x="363" y="-156.8" font-family="Times,serif" font-size="14.00" fill="#000000">MatTooltipModule </text>
</g>
<!-- MatTreeModule  -->
<g id="node39" class="node">
<title>MatTreeModule </title>
<polygon fill="#fb8072" stroke="#000000" points="281.7423,-179 170.2577,-179 170.2577,-143 281.7423,-143 281.7423,-179"/>
<text text-anchor="middle" x="226" y="-156.8" font-family="Times,serif" font-size="14.00" fill="#000000">MatTreeModule </text>
</g>
<!-- MatStepperModule  -->
<g id="node40" class="node">
<title>MatStepperModule </title>
<polygon fill="#fb8072" stroke="#000000" points="152.3631,-179 23.6369,-179 23.6369,-143 152.3631,-143 152.3631,-179"/>
<text text-anchor="middle" x="88" y="-156.8" font-family="Times,serif" font-size="14.00" fill="#000000">MatStepperModule </text>
</g>
<!-- MaterialModule -->
<g id="node41" class="node">
<title>MaterialModule</title>
<polygon fill="#8dd3c7" stroke="#000000" points="3088.4706,-114 3085.4706,-118 3064.4706,-118 3061.4706,-114 2981.5294,-114 2981.5294,-78 3088.4706,-78 3088.4706,-114"/>
<text text-anchor="middle" x="3035" y="-91.8" font-family="Times,serif" font-size="14.00" fill="#000000">MaterialModule</text>
</g>
<!-- MaterialModule&#45;&gt;CdkTableModule  -->
<g id="edge1" class="edge">
<title>MaterialModule&#45;&gt;CdkTableModule </title>
<path fill="none" stroke="#000000" stroke-dasharray="5,2" d="M3079.3316,-114.1432C3079.3316,-120.4611 3079.3316,-126 3079.3316,-126 3079.3316,-126 5909,-126 5909,-126 5909,-126 5909,-132.68 5909,-132.68"/>
<polygon fill="#000000" stroke="#000000" points="5905.5001,-132.6799 5909,-142.68 5912.5001,-132.68 5905.5001,-132.6799"/>
</g>
<!-- MaterialModule&#45;&gt;OverlayModule  -->
<g id="edge2" class="edge">
<title>MaterialModule&#45;&gt;OverlayModule </title>
<path fill="none" stroke="#000000" stroke-dasharray="5,2" d="M3070.178,-114.0555C3070.178,-125.439 3070.178,-138 3070.178,-138 3070.178,-138 5778,-138 5778,-138 5778,-138 5778,-138.4878 5778,-138.4878"/>
<polygon fill="#000000" stroke="#000000" points="5774.5002,-132.8776 5778,-142.8777 5781.5002,-132.8778 5774.5002,-132.8776"/>
</g>
<!-- MaterialModule&#45;&gt;MatAutocompleteModule  -->
<g id="edge3" class="edge">
<title>MaterialModule&#45;&gt;MatAutocompleteModule </title>
<path fill="none" stroke="#000000" stroke-dasharray="5,2" d="M3088.7566,-80C3459.5442,-80 5623,-80 5623,-80 5623,-80 5623,-132.6198 5623,-132.6198"/>
<polygon fill="#000000" stroke="#000000" points="5619.5001,-132.6198 5623,-142.6198 5626.5001,-132.6199 5619.5001,-132.6198"/>
</g>
<!-- MaterialModule&#45;&gt;MatButtonModule  -->
<g id="edge4" class="edge">
<title>MaterialModule&#45;&gt;MatButtonModule </title>
<path fill="none" stroke="#000000" stroke-dasharray="5,2" d="M3088.4978,-82C3444.8654,-82 5461,-82 5461,-82 5461,-82 5461,-132.6772 5461,-132.6772"/>
<polygon fill="#000000" stroke="#000000" points="5457.5001,-132.6772 5461,-142.6772 5464.5001,-132.6773 5457.5001,-132.6772"/>
</g>
<!-- MaterialModule&#45;&gt;MatButtonToggleModule  -->
<g id="edge5" class="edge">
<title>MaterialModule&#45;&gt;MatButtonToggleModule </title>
<path fill="none" stroke="#000000" stroke-dasharray="5,2" d="M3088.7313,-84C3431.5783,-84 5299,-84 5299,-84 5299,-84 5299,-132.7521 5299,-132.7521"/>
<polygon fill="#000000" stroke="#000000" points="5295.5001,-132.752 5299,-142.7521 5302.5001,-132.7521 5295.5001,-132.752"/>
</g>
<!-- MaterialModule&#45;&gt;MatCardModule  -->
<g id="edge6" class="edge">
<title>MaterialModule&#45;&gt;MatCardModule </title>
<path fill="none" stroke="#000000" stroke-dasharray="5,2" d="M3088.6933,-86C3417.3149,-86 5143,-86 5143,-86 5143,-86 5143,-132.8446 5143,-132.8446"/>
<polygon fill="#000000" stroke="#000000" points="5139.5001,-132.8446 5143,-142.8446 5146.5001,-132.8446 5139.5001,-132.8446"/>
</g>
<!-- MaterialModule&#45;&gt;MatCheckboxModule  -->
<g id="edge7" class="edge">
<title>MaterialModule&#45;&gt;MatCheckboxModule </title>
<path fill="none" stroke="#000000" stroke-dasharray="5,2" d="M3088.4963,-88C3402.948,-88 4997,-88 4997,-88 4997,-88 4997,-132.9551 4997,-132.9551"/>
<polygon fill="#000000" stroke="#000000" points="4993.5001,-132.955 4997,-142.9551 5000.5001,-132.9551 4993.5001,-132.955"/>
</g>
<!-- MaterialModule&#45;&gt;MatChipsModule  -->
<g id="edge8" class="edge">
<title>MaterialModule&#45;&gt;MatChipsModule </title>
<path fill="none" stroke="#000000" stroke-dasharray="5,2" d="M3088.7973,-90C3389.5283,-90 4849,-90 4849,-90 4849,-90 4849,-132.7157 4849,-132.7157"/>
<polygon fill="#000000" stroke="#000000" points="4845.5001,-132.7157 4849,-142.7157 4852.5001,-132.7158 4845.5001,-132.7157"/>
</g>
<!-- MaterialModule&#45;&gt;MatCommonModule  -->
<g id="edge9" class="edge">
<title>MaterialModule&#45;&gt;MatCommonModule </title>
<path fill="none" stroke="#000000" stroke-dasharray="5,2" d="M3088.6082,-92C3374.1116,-92 4703,-92 4703,-92 4703,-92 4703,-132.8711 4703,-132.8711"/>
<polygon fill="#000000" stroke="#000000" points="4699.5001,-132.871 4703,-142.8711 4706.5001,-132.8711 4699.5001,-132.871"/>
</g>
<!-- MaterialModule&#45;&gt;MatDatepickerModule  -->
<g id="edge10" class="edge">
<title>MaterialModule&#45;&gt;MatDatepickerModule </title>
<path fill="none" stroke="#000000" stroke-dasharray="5,2" d="M3088.6705,-94C3357.3046,-94 4543,-94 4543,-94 4543,-94 4543,-132.692 4543,-132.692"/>
<polygon fill="#000000" stroke="#000000" points="4539.5001,-132.6919 4543,-142.692 4546.5001,-132.692 4539.5001,-132.6919"/>
</g>
<!-- MaterialModule&#45;&gt;MatDialogModule  -->
<g id="edge11" class="edge">
<title>MaterialModule&#45;&gt;MatDialogModule </title>
<path fill="none" stroke="#000000" stroke-dasharray="5,2" d="M3088.535,-96C3339.8028,-96 4390,-96 4390,-96 4390,-96 4390,-132.8939 4390,-132.8939"/>
<polygon fill="#000000" stroke="#000000" points="4386.5001,-132.8938 4390,-142.8939 4393.5001,-132.8939 4386.5001,-132.8938"/>
</g>
<!-- MaterialModule&#45;&gt;MatDividerModule  -->
<g id="edge12" class="edge">
<title>MaterialModule&#45;&gt;MatDividerModule </title>
<path fill="none" stroke="#000000" stroke-dasharray="5,2" d="M3088.5977,-98C3322.9627,-98 4246,-98 4246,-98 4246,-98 4246,-132.7778 4246,-132.7778"/>
<polygon fill="#000000" stroke="#000000" points="4242.5001,-132.7778 4246,-142.7778 4249.5001,-132.7778 4242.5001,-132.7778"/>
</g>
<!-- MaterialModule&#45;&gt;MatExpansionModule  -->
<g id="edge13" class="edge">
<title>MaterialModule&#45;&gt;MatExpansionModule </title>
<path fill="none" stroke="#000000" stroke-dasharray="5,2" d="M3088.819,-100C3304.0112,-100 4091,-100 4091,-100 4091,-100 4091,-132.698 4091,-132.698"/>
<polygon fill="#000000" stroke="#000000" points="4087.5001,-132.698 4091,-142.698 4094.5001,-132.698 4087.5001,-132.698"/>
</g>
<!-- MaterialModule&#45;&gt;MatFormFieldModule  -->
<g id="edge14" class="edge">
<title>MaterialModule&#45;&gt;MatFormFieldModule </title>
<path fill="none" stroke="#000000" stroke-dasharray="5,2" d="M3088.5181,-102C3281.1757,-102 3928,-102 3928,-102 3928,-102 3928,-132.9775 3928,-132.9775"/>
<polygon fill="#000000" stroke="#000000" points="3924.5001,-132.9774 3928,-142.9775 3931.5001,-132.9775 3924.5001,-132.9774"/>
</g>
<!-- MaterialModule&#45;&gt;MatGridListModule  -->
<g id="edge15" class="edge">
<title>MaterialModule&#45;&gt;MatGridListModule </title>
<path fill="none" stroke="#000000" stroke-dasharray="5,2" d="M3088.5242,-104C3257.8904,-104 3771,-104 3771,-104 3771,-104 3771,-132.9648 3771,-132.9648"/>
<polygon fill="#000000" stroke="#000000" points="3767.5001,-132.9648 3771,-142.9648 3774.5001,-132.9649 3767.5001,-132.9648"/>
</g>
<!-- MaterialModule&#45;&gt;MatIconModule  -->
<g id="edge16" class="edge">
<title>MaterialModule&#45;&gt;MatIconModule </title>
<path fill="none" stroke="#000000" stroke-dasharray="5,2" d="M3088.6786,-106C3235.1788,-106 3631,-106 3631,-106 3631,-106 3631,-132.9909 3631,-132.9909"/>
<polygon fill="#000000" stroke="#000000" points="3627.5001,-132.9909 3631,-142.9909 3634.5001,-132.991 3627.5001,-132.9909"/>
</g>
<!-- MaterialModule&#45;&gt;MatInputModule  -->
<g id="edge17" class="edge">
<title>MaterialModule&#45;&gt;MatInputModule </title>
<path fill="none" stroke="#000000" stroke-dasharray="5,2" d="M3088.7957,-108C3211.1981,-108 3500,-108 3500,-108 3500,-108 3500,-132.7604 3500,-132.7604"/>
<polygon fill="#000000" stroke="#000000" points="3496.5001,-132.7604 3500,-142.7604 3503.5001,-132.7604 3496.5001,-132.7604"/>
</g>
<!-- MaterialModule&#45;&gt;MatLineModule  -->
<g id="edge18" class="edge">
<title>MaterialModule&#45;&gt;MatLineModule </title>
<path fill="none" stroke="#000000" stroke-dasharray="5,2" d="M3088.6629,-110C3183.0769,-110 3369,-110 3369,-110 3369,-110 3369,-132.8757 3369,-132.8757"/>
<polygon fill="#000000" stroke="#000000" points="3365.5001,-132.8757 3369,-142.8757 3372.5001,-132.8757 3365.5001,-132.8757"/>
</g>
<!-- MaterialModule&#45;&gt;MatListModule  -->
<g id="edge19" class="edge">
<title>MaterialModule&#45;&gt;MatListModule </title>
<path fill="none" stroke="#000000" stroke-dasharray="5,2" d="M3088.5768,-112C3149.9101,-112 3242,-112 3242,-112 3242,-112 3242,-132.7542 3242,-132.7542"/>
<polygon fill="#000000" stroke="#000000" points="3238.5001,-132.7542 3242,-142.7542 3245.5001,-132.7542 3238.5001,-132.7542"/>
</g>
<!-- MaterialModule&#45;&gt;MatMenuModule  -->
<g id="edge20" class="edge">
<title>MaterialModule&#45;&gt;MatMenuModule </title>
<path fill="none" stroke="#000000" stroke-dasharray="5,2" d="M3061.0243,-114.1061C3061.0243,-114.1061 3061.0243,-132.991 3061.0243,-132.991"/>
<polygon fill="#000000" stroke="#000000" points="3057.5244,-132.9909 3061.0243,-142.991 3064.5244,-132.991 3057.5244,-132.9909"/>
</g>
<!-- MaterialModule&#45;&gt;MatNativeDateModule  -->
<g id="edge21" class="edge">
<title>MaterialModule&#45;&gt;MatNativeDateModule </title>
<path fill="none" stroke="#000000" stroke-dasharray="5,2" d="M3020.6323,-114.1061C3020.6323,-114.1061 3020.6323,-132.991 3020.6323,-132.991"/>
<polygon fill="#000000" stroke="#000000" points="3017.1324,-132.9909 3020.6323,-142.991 3024.1324,-132.991 3017.1324,-132.9909"/>
</g>
<!-- MaterialModule&#45;&gt;MatOptionModule  -->
<g id="edge22" class="edge">
<title>MaterialModule&#45;&gt;MatOptionModule </title>
<path fill="none" stroke="#000000" stroke-dasharray="5,2" d="M2981.4233,-112C2913.1836,-112 2804,-112 2804,-112 2804,-112 2804,-132.7542 2804,-132.7542"/>
<polygon fill="#000000" stroke="#000000" points="2800.5001,-132.7542 2804,-142.7542 2807.5001,-132.7542 2800.5001,-132.7542"/>
</g>
<!-- MaterialModule&#45;&gt;MatPaginatorModule  -->
<g id="edge23" class="edge">
<title>MaterialModule&#45;&gt;MatPaginatorModule </title>
<path fill="none" stroke="#000000" stroke-dasharray="5,2" d="M2981.2201,-110C2876.1972,-110 2654,-110 2654,-110 2654,-110 2654,-132.8757 2654,-132.8757"/>
<polygon fill="#000000" stroke="#000000" points="2650.5001,-132.8757 2654,-142.8757 2657.5001,-132.8757 2650.5001,-132.8757"/>
</g>
<!-- MaterialModule&#45;&gt;MatProgressBarModule  -->
<g id="edge24" class="edge">
<title>MaterialModule&#45;&gt;MatProgressBarModule </title>
<path fill="none" stroke="#000000" stroke-dasharray="5,2" d="M2981.1531,-108C2843.4056,-108 2489,-108 2489,-108 2489,-108 2489,-132.7604 2489,-132.7604"/>
<polygon fill="#000000" stroke="#000000" points="2485.5001,-132.7604 2489,-142.7604 2492.5001,-132.7604 2485.5001,-132.7604"/>
</g>
<!-- MaterialModule&#45;&gt;MatProgressSpinnerModule  -->
<g id="edge25" class="edge">
<title>MaterialModule&#45;&gt;MatProgressSpinnerModule </title>
<path fill="none" stroke="#000000" stroke-dasharray="5,2" d="M2981.3214,-106C2812.7369,-106 2305,-106 2305,-106 2305,-106 2305,-132.9909 2305,-132.9909"/>
<polygon fill="#000000" stroke="#000000" points="2301.5001,-132.9909 2305,-142.9909 2308.5001,-132.991 2301.5001,-132.9909"/>
</g>
<!-- MaterialModule&#45;&gt;MatPseudoCheckboxModule  -->
<g id="edge26" class="edge">
<title>MaterialModule&#45;&gt;MatPseudoCheckboxModule </title>
<path fill="none" stroke="#000000" stroke-dasharray="5,2" d="M2981.4351,-104C2783.8114,-104 2107,-104 2107,-104 2107,-104 2107,-132.9648 2107,-132.9648"/>
<polygon fill="#000000" stroke="#000000" points="2103.5001,-132.9648 2107,-142.9648 2110.5001,-132.9649 2103.5001,-132.9648"/>
</g>
<!-- MaterialModule&#45;&gt;MatRadioModule  -->
<g id="edge27" class="edge">
<title>MaterialModule&#45;&gt;MatRadioModule </title>
<path fill="none" stroke="#000000" stroke-dasharray="5,2" d="M2981.3468,-102C2761.1026,-102 1938,-102 1938,-102 1938,-102 1938,-132.9775 1938,-132.9775"/>
<polygon fill="#000000" stroke="#000000" points="1934.5001,-132.9774 1938,-142.9775 1941.5001,-132.9775 1934.5001,-132.9774"/>
</g>
<!-- MaterialModule&#45;&gt;MatRippleModule  -->
<g id="edge28" class="edge">
<title>MaterialModule&#45;&gt;MatRippleModule </title>
<path fill="none" stroke="#000000" stroke-dasharray="5,2" d="M2981.4939,-100C2744.2566,-100 1799,-100 1799,-100 1799,-100 1799,-132.698 1799,-132.698"/>
<polygon fill="#000000" stroke="#000000" points="1795.5001,-132.698 1799,-142.698 1802.5001,-132.698 1795.5001,-132.698"/>
</g>
<!-- MaterialModule&#45;&gt;MatSelectModule  -->
<g id="edge29" class="edge">
<title>MaterialModule&#45;&gt;MatSelectModule </title>
<path fill="none" stroke="#000000" stroke-dasharray="5,2" d="M2981.5204,-98C2728.0638,-98 1660,-98 1660,-98 1660,-98 1660,-132.7778 1660,-132.7778"/>
<polygon fill="#000000" stroke="#000000" points="1656.5001,-132.7778 1660,-142.7778 1663.5001,-132.7778 1656.5001,-132.7778"/>
</g>
<!-- MaterialModule&#45;&gt;MatSidenavModule  -->
<g id="edge30" class="edge">
<title>MaterialModule&#45;&gt;MatSidenavModule </title>
<path fill="none" stroke="#000000" stroke-dasharray="5,2" d="M2981.4195,-96C2711.8729,-96 1517,-96 1517,-96 1517,-96 1517,-132.8939 1517,-132.8939"/>
<polygon fill="#000000" stroke="#000000" points="1513.5001,-132.8938 1517,-142.8939 1520.5001,-132.8939 1513.5001,-132.8938"/>
</g>
<!-- MaterialModule&#45;&gt;MatSlideToggleModule  -->
<g id="edge31" class="edge">
<title>MaterialModule&#45;&gt;MatSlideToggleModule </title>
<path fill="none" stroke="#000000" stroke-dasharray="5,2" d="M2981.0704,-94C2693.8554,-94 1357,-94 1357,-94 1357,-94 1357,-132.692 1357,-132.692"/>
<polygon fill="#000000" stroke="#000000" points="1353.5001,-132.6919 1357,-142.692 1360.5001,-132.692 1353.5001,-132.6919"/>
</g>
<!-- MaterialModule&#45;&gt;MatSliderModule  -->
<g id="edge32" class="edge">
<title>MaterialModule&#45;&gt;MatSliderModule </title>
<path fill="none" stroke="#000000" stroke-dasharray="5,2" d="M2981.1345,-92C2678.3644,-92 1202,-92 1202,-92 1202,-92 1202,-132.8711 1202,-132.8711"/>
<polygon fill="#000000" stroke="#000000" points="1198.5001,-132.871 1202,-142.8711 1205.5001,-132.8711 1198.5001,-132.871"/>
</g>
<!-- MaterialModule&#45;&gt;MatSnackBarModule  -->
<g id="edge33" class="edge">
<title>MaterialModule&#45;&gt;MatSnackBarModule </title>
<path fill="none" stroke="#000000" stroke-dasharray="5,2" d="M2981.5005,-90C2665.2331,-90 1054,-90 1054,-90 1054,-90 1054,-132.7157 1054,-132.7157"/>
<polygon fill="#000000" stroke="#000000" points="1050.5001,-132.7157 1054,-142.7157 1057.5001,-132.7158 1050.5001,-132.7157"/>
</g>
<!-- MaterialModule&#45;&gt;MatSortModule  -->
<g id="edge34" class="edge">
<title>MaterialModule&#45;&gt;MatSortModule </title>
<path fill="none" stroke="#000000" stroke-dasharray="5,2" d="M2981.4593,-88C2651.841,-88 912,-88 912,-88 912,-88 912,-132.9551 912,-132.9551"/>
<polygon fill="#000000" stroke="#000000" points="908.5001,-132.955 912,-142.9551 915.5001,-132.9551 908.5001,-132.955"/>
</g>
<!-- MaterialModule&#45;&gt;MatTableModule  -->
<g id="edge35" class="edge">
<title>MaterialModule&#45;&gt;MatTableModule </title>
<path fill="none" stroke="#000000" stroke-dasharray="5,2" d="M2981.506,-86C2640.1734,-86 781,-86 781,-86 781,-86 781,-132.8446 781,-132.8446"/>
<polygon fill="#000000" stroke="#000000" points="777.5001,-132.8446 781,-142.8446 784.5001,-132.8446 777.5001,-132.8446"/>
</g>
<!-- MaterialModule&#45;&gt;MatTabsModule  -->
<g id="edge36" class="edge">
<title>MaterialModule&#45;&gt;MatTabsModule </title>
<path fill="none" stroke="#000000" stroke-dasharray="5,2" d="M2981.5139,-84C2628.5373,-84 648,-84 648,-84 648,-84 648,-132.7521 648,-132.7521"/>
<polygon fill="#000000" stroke="#000000" points="644.5001,-132.752 648,-142.7521 651.5001,-132.7521 644.5001,-132.752"/>
</g>
<!-- MaterialModule&#45;&gt;MatToolbarModule  -->
<g id="edge37" class="edge">
<title>MaterialModule&#45;&gt;MatToolbarModule </title>
<path fill="none" stroke="#000000" stroke-dasharray="5,2" d="M2981.3656,-82C2616.118,-82 509,-82 509,-82 509,-82 509,-132.6772 509,-132.6772"/>
<polygon fill="#000000" stroke="#000000" points="505.5001,-132.6772 509,-142.6772 512.5001,-132.6773 505.5001,-132.6772"/>
</g>
<!-- MaterialModule&#45;&gt;MatTooltipModule  -->
<g id="edge38" class="edge">
<title>MaterialModule&#45;&gt;MatTooltipModule </title>
<path fill="none" stroke="#000000" stroke-dasharray="5,2" d="M2981.3243,-80C2603.8392,-80 363,-80 363,-80 363,-80 363,-132.6198 363,-132.6198"/>
<polygon fill="#000000" stroke="#000000" points="359.5001,-132.6198 363,-142.6198 366.5001,-132.6199 359.5001,-132.6198"/>
</g>
<!-- MaterialModule&#45;&gt;MatTreeModule  -->
<g id="edge39" class="edge">
<title>MaterialModule&#45;&gt;MatTreeModule </title>
<path fill="none" stroke="#000000" stroke-dasharray="5,2" d="M3007.5931,-114.4218C3007.5931,-123.2791 3007.5931,-132 3007.5931,-132 3007.5931,-132 226,-132 226,-132 226,-132 226,-133.0799 226,-133.0799"/>
<polygon fill="#000000" stroke="#000000" points="222.5001,-132.7985 226,-142.7985 229.5001,-132.7986 222.5001,-132.7985"/>
</g>
<!-- MaterialModule&#45;&gt;MatStepperModule  -->
<g id="edge40" class="edge">
<title>MaterialModule&#45;&gt;MatStepperModule </title>
<path fill="none" stroke="#000000" stroke-dasharray="5,2" d="M2994.5539,-114.1903C2994.5539,-117.5376 2994.5539,-120 2994.5539,-120 2994.5539,-120 88,-120 88,-120 88,-120 88,-132.8975 88,-132.8975"/>
<polygon fill="#000000" stroke="#000000" points="84.5001,-132.8974 88,-142.8975 91.5001,-132.8975 84.5001,-132.8974"/>
</g>
</g>
</svg>
