<?xml version="1.0" encoding="UTF-8" standalone="no"?>
<!DOCTYPE svg PUBLIC "-//W3C//DTD SVG 1.1//EN"
 "http://www.w3.org/Graphics/SVG/1.1/DTD/svg11.dtd">
<!-- Generated by graphviz version 2.40.1 (20161225.0304)
 -->
<!-- Title: dependencies Pages: 1 -->
<svg width="918pt" height="211pt"
 viewBox="0.00 0.00 918.00 211.00" xmlns="http://www.w3.org/2000/svg" xmlns:xlink="http://www.w3.org/1999/xlink">
<g id="graph0" class="graph" transform="scale(1 1) rotate(0) translate(4 207)">
<title>dependencies</title>
<polygon fill="#ffffff" stroke="transparent" points="-4,4 -4,-207 914,-207 914,4 -4,4"/>
<text text-anchor="start" x="434.0091" y="-42.4" font-family="sans-serif" font-weight="bold" font-size="14.00" fill="#000000">Legend</text>
<polygon fill="#ffffb3" stroke="transparent" points="221,-10 221,-30 241,-30 241,-10 221,-10"/>
<text text-anchor="start" x="244.629" y="-15.4" font-family="sans-serif" font-size="14.00" fill="#000000"> &#160;Declarations</text>
<polygon fill="#8dd3c7" stroke="transparent" points="334,-10 334,-30 354,-30 354,-10 334,-10"/>
<text text-anchor="start" x="357.7251" y="-15.4" font-family="sans-serif" font-size="14.00" fill="#000000"> &#160;Module</text>
<polygon fill="#80b1d3" stroke="transparent" points="420,-10 420,-30 440,-30 440,-10 420,-10"/>
<text text-anchor="start" x="443.7812" y="-15.4" font-family="sans-serif" font-size="14.00" fill="#000000"> &#160;Bootstrap</text>
<polygon fill="#fdb462" stroke="transparent" points="517,-10 517,-30 537,-30 537,-10 517,-10"/>
<text text-anchor="start" x="540.6732" y="-15.4" font-family="sans-serif" font-size="14.00" fill="#000000"> &#160;Providers</text>
<polygon fill="#fb8072" stroke="transparent" points="613,-10 613,-30 633,-30 633,-10 613,-10"/>
<text text-anchor="start" x="636.7258" y="-15.4" font-family="sans-serif" font-size="14.00" fill="#000000"> &#160;Exports</text>
<g id="clust1" class="cluster">
<title>cluster_AppCoreModule</title>
<polygon fill="none" stroke="#000000" stroke-dasharray="1,5" points="8,-70 8,-195 902,-195 902,-70 8,-70"/>
</g>
<g id="clust3" class="cluster">
<title>cluster_AppCoreModule_imports</title>
<polygon fill="none" stroke="#000000" points="240,-78 240,-130 894,-130 894,-78 240,-78"/>
</g>
<g id="clust6" class="cluster">
<title>cluster_AppCoreModule_providers</title>
<polygon fill="none" stroke="#000000" points="16,-78 16,-130 232,-130 232,-78 16,-78"/>
</g>
<!-- BrowserModule -->
<g id="node1" class="node">
<title>BrowserModule</title>
<polygon fill="#8dd3c7" stroke="#000000" points="886.4734,-122 883.4734,-126 862.4734,-126 859.4734,-122 779.5266,-122 779.5266,-86 886.4734,-86 886.4734,-122"/>
<text text-anchor="middle" x="833" y="-99.8" font-family="Times,serif" font-size="14.00" fill="#000000">BrowserModule</text>
</g>
<!-- AppCoreModule -->
<g id="node5" class="node">
<title>AppCoreModule</title>
<polygon fill="#8dd3c7" stroke="#000000" points="596.3683,-187 593.3683,-191 572.3683,-191 569.3683,-187 485.6317,-187 485.6317,-151 596.3683,-151 596.3683,-187"/>
<text text-anchor="middle" x="541" y="-164.8" font-family="Times,serif" font-size="14.00" fill="#000000">AppCoreModule</text>
</g>
<!-- BrowserModule&#45;&gt;AppCoreModule -->
<g id="edge1" class="edge">
<title>BrowserModule&#45;&gt;AppCoreModule</title>
<path fill="none" stroke="#000000" d="M833,-122.2843C833,-143.3211 833,-175 833,-175 833,-175 606.6103,-175 606.6103,-175"/>
<polygon fill="#000000" stroke="#000000" points="606.6103,-171.5001 596.6103,-175 606.6102,-178.5001 606.6103,-171.5001"/>
</g>
<!-- HttpClientModule -->
<g id="node2" class="node">
<title>HttpClientModule</title>
<polygon fill="#8dd3c7" stroke="#000000" points="761.1611,-122 758.1611,-126 737.1611,-126 734.1611,-122 642.8389,-122 642.8389,-86 761.1611,-86 761.1611,-122"/>
<text text-anchor="middle" x="702" y="-99.8" font-family="Times,serif" font-size="14.00" fill="#000000">HttpClientModule</text>
</g>
<!-- HttpClientModule&#45;&gt;AppCoreModule -->
<g id="edge2" class="edge">
<title>HttpClientModule&#45;&gt;AppCoreModule</title>
<path fill="none" stroke="#000000" d="M702,-122.0225C702,-139.3734 702,-163 702,-163 702,-163 606.4071,-163 606.4071,-163"/>
<polygon fill="#000000" stroke="#000000" points="606.4071,-159.5001 596.4071,-163 606.407,-166.5001 606.4071,-159.5001"/>
</g>
<!-- CoreModule.forRoot(args) -->
<g id="node3" class="node">
<title>CoreModule.forRoot(args)</title>
<polygon fill="#8dd3c7" stroke="#000000" points="624.4516,-122 621.4516,-126 600.4516,-126 597.4516,-122 457.5484,-122 457.5484,-86 624.4516,-86 624.4516,-122"/>
<text text-anchor="middle" x="541" y="-99.8" font-family="Times,serif" font-size="14.00" fill="#000000">CoreModule.forRoot(args)</text>
</g>
<!-- CoreModule.forRoot(args)&#45;&gt;AppCoreModule -->
<g id="edge3" class="edge">
<title>CoreModule.forRoot(args)&#45;&gt;AppCoreModule</title>
<path fill="none" stroke="#000000" d="M541,-122.1061C541,-122.1061 541,-140.991 541,-140.991"/>
<polygon fill="#000000" stroke="#000000" points="537.5001,-140.9909 541,-150.991 544.5001,-140.991 537.5001,-140.9909"/>
</g>
<!-- TranslateModule.forRoot(args) -->
<g id="node4" class="node">
<title>TranslateModule.forRoot(args)</title>
<polygon fill="#8dd3c7" stroke="#000000" points="439.8223,-122 436.8223,-126 415.8223,-126 412.8223,-122 248.1777,-122 248.1777,-86 439.8223,-86 439.8223,-122"/>
<text text-anchor="middle" x="344" y="-99.8" font-family="Times,serif" font-size="14.00" fill="#000000">TranslateModule.forRoot(args)</text>
</g>
<!-- TranslateModule.forRoot(args)&#45;&gt;AppCoreModule -->
<g id="edge4" class="edge">
<title>TranslateModule.forRoot(args)&#45;&gt;AppCoreModule</title>
<path fill="none" stroke="#000000" d="M344,-122.0225C344,-139.3734 344,-163 344,-163 344,-163 475.6003,-163 475.6003,-163"/>
<polygon fill="#000000" stroke="#000000" points="475.6003,-166.5001 485.6003,-163 475.6002,-159.5001 475.6003,-166.5001"/>
</g>
<!-- ...ITEM_PROVIDERS -->
<g id="node6" class="node">
<title>...ITEM_PROVIDERS</title>
<ellipse fill="#fdb462" stroke="#000000" cx="124" cy="-104" rx="100.2016" ry="18"/>
<text text-anchor="middle" x="124" y="-99.8" font-family="Times,serif" font-size="14.00" fill="#000000">...ITEM_PROVIDERS</text>
</g>
<!-- ...ITEM_PROVIDERS&#45;&gt;AppCoreModule -->
<g id="edge5" class="edge">
<title>...ITEM_PROVIDERS&#45;&gt;AppCoreModule</title>
<path fill="none" stroke="#000000" d="M124,-122.2843C124,-143.3211 124,-175 124,-175 124,-175 475.6256,-175 475.6256,-175"/>
<polygon fill="#000000" stroke="#000000" points="475.6257,-178.5001 485.6256,-175 475.6256,-171.5001 475.6257,-178.5001"/>
</g>
</g>
</svg>
