<?xml version="1.0" encoding="UTF-8" standalone="no"?>
<!DOCTYPE svg PUBLIC "-//W3C//DTD SVG 1.1//EN"
 "http://www.w3.org/Graphics/SVG/1.1/DTD/svg11.dtd">
<!-- Generated by graphviz version 2.40.1 (20161225.0304)
 -->
<!-- Title: dependencies Pages: 1 -->
<svg width="504pt" height="284pt"
 viewBox="0.00 0.00 504.00 284.00" xmlns="http://www.w3.org/2000/svg" xmlns:xlink="http://www.w3.org/1999/xlink">
<g id="graph0" class="graph" transform="scale(1 1) rotate(0) translate(4 280)">
<title>dependencies</title>
<polygon fill="#ffffff" stroke="transparent" points="-4,4 -4,-280 500,-280 500,4 -4,4"/>
<text text-anchor="start" x="227.0091" y="-42.4" font-family="sans-serif" font-weight="bold" font-size="14.00" fill="#000000">Legend</text>
<polygon fill="#ffffb3" stroke="transparent" points="14,-10 14,-30 34,-30 34,-10 14,-10"/>
<text text-anchor="start" x="37.629" y="-15.4" font-family="sans-serif" font-size="14.00" fill="#000000"> &#160;Declarations</text>
<polygon fill="#8dd3c7" stroke="transparent" points="127,-10 127,-30 147,-30 147,-10 127,-10"/>
<text text-anchor="start" x="150.7251" y="-15.4" font-family="sans-serif" font-size="14.00" fill="#000000"> &#160;Module</text>
<polygon fill="#80b1d3" stroke="transparent" points="213,-10 213,-30 233,-30 233,-10 213,-10"/>
<text text-anchor="start" x="236.7812" y="-15.4" font-family="sans-serif" font-size="14.00" fill="#000000"> &#160;Bootstrap</text>
<polygon fill="#fdb462" stroke="transparent" points="310,-10 310,-30 330,-30 330,-10 310,-10"/>
<text text-anchor="start" x="333.6732" y="-15.4" font-family="sans-serif" font-size="14.00" fill="#000000"> &#160;Providers</text>
<polygon fill="#fb8072" stroke="transparent" points="406,-10 406,-30 426,-30 426,-10 406,-10"/>
<text text-anchor="start" x="429.7258" y="-15.4" font-family="sans-serif" font-size="14.00" fill="#000000"> &#160;Exports</text>
<g id="clust1" class="cluster">
<title>cluster_ItemsModule</title>
<polygon fill="none" stroke="#000000" stroke-dasharray="1,5" points="102,-70 102,-268 394,-268 394,-70 102,-70"/>
</g>
<g id="clust2" class="cluster">
<title>cluster_ItemsModule_declarations</title>
<polygon fill="none" stroke="#000000" points="208,-78 208,-130 386,-130 386,-78 208,-78"/>
</g>
<g id="clust4" class="cluster">
<title>cluster_ItemsModule_imports</title>
<polygon fill="none" stroke="#000000" points="110,-78 110,-130 200,-130 200,-78 110,-78"/>
</g>
<g id="clust5" class="cluster">
<title>cluster_ItemsModule_exports</title>
<polygon fill="none" stroke="#000000" points="180,-208 180,-260 274,-260 274,-208 180,-208"/>
</g>
<!-- ...ITEM_COMPONENTS -->
<g id="node1" class="node">
<title>...ITEM_COMPONENTS</title>
<polygon fill="#ffffb3" stroke="#000000" points="378.0889,-122 215.9111,-122 215.9111,-86 378.0889,-86 378.0889,-122"/>
<text text-anchor="middle" x="297" y="-99.8" font-family="Times,serif" font-size="14.00" fill="#000000">...ITEM_COMPONENTS</text>
</g>
<!-- ItemsModule -->
<g id="node2" class="node">
<title>ItemsModule</title>
<polygon fill="#8dd3c7" stroke="#000000" points="272.1515,-187 269.1515,-191 248.1515,-191 245.1515,-187 181.8485,-187 181.8485,-151 272.1515,-151 272.1515,-187"/>
<text text-anchor="middle" x="227" y="-164.8" font-family="Times,serif" font-size="14.00" fill="#000000">ItemsModule</text>
</g>
<!-- ...ITEM_COMPONENTS&#45;&gt;ItemsModule -->
<g id="edge1" class="edge">
<title>...ITEM_COMPONENTS&#45;&gt;ItemsModule</title>
<path fill="none" stroke="#000000" d="M244.0156,-122.1061C244.0156,-122.1061 244.0156,-140.991 244.0156,-140.991"/>
<polygon fill="#000000" stroke="#000000" points="240.5157,-140.9909 244.0156,-150.991 247.5157,-140.991 240.5157,-140.9909"/>
</g>
<!-- UIModule  -->
<g id="node4" class="node">
<title>UIModule </title>
<polygon fill="#fb8072" stroke="#000000" points="265.8172,-252 188.1828,-252 188.1828,-216 265.8172,-216 265.8172,-252"/>
<text text-anchor="middle" x="227" y="-229.8" font-family="Times,serif" font-size="14.00" fill="#000000">UIModule </text>
</g>
<!-- ItemsModule&#45;&gt;UIModule  -->
<g id="edge3" class="edge">
<title>ItemsModule&#45;&gt;UIModule </title>
<path fill="none" stroke="#000000" stroke-dasharray="5,2" d="M227,-187.1061C227,-187.1061 227,-205.991 227,-205.991"/>
<polygon fill="#000000" stroke="#000000" points="223.5001,-205.9909 227,-215.991 230.5001,-205.991 223.5001,-205.9909"/>
</g>
<!-- UIModule -->
<g id="node3" class="node">
<title>UIModule</title>
<polygon fill="#8dd3c7" stroke="#000000" points="192.3177,-122 189.3177,-126 168.3177,-126 165.3177,-122 117.6823,-122 117.6823,-86 192.3177,-86 192.3177,-122"/>
<text text-anchor="middle" x="155" y="-99.8" font-family="Times,serif" font-size="14.00" fill="#000000">UIModule</text>
</g>
<!-- UIModule&#45;&gt;ItemsModule -->
<g id="edge2" class="edge">
<title>UIModule&#45;&gt;ItemsModule</title>
<path fill="none" stroke="#000000" d="M186.9166,-122.1061C186.9166,-122.1061 186.9166,-140.991 186.9166,-140.991"/>
<polygon fill="#000000" stroke="#000000" points="183.4166,-140.9909 186.9166,-150.991 190.4166,-140.991 183.4166,-140.9909"/>
</g>
</g>
</svg>
