<?xml version="1.0" encoding="UTF-8" standalone="no"?>
<!DOCTYPE svg PUBLIC "-//W3C//DTD SVG 1.1//EN"
 "http://www.w3.org/Graphics/SVG/1.1/DTD/svg11.dtd">
<!-- Generated by graphviz version 2.40.1 (20161225.0304)
 -->
<!-- Title: dependencies Pages: 1 -->
<svg width="504pt" height="284pt"
 viewBox="0.00 0.00 504.00 284.00" xmlns="http://www.w3.org/2000/svg" xmlns:xlink="http://www.w3.org/1999/xlink">
<g id="graph0" class="graph" transform="scale(1 1) rotate(0) translate(4 280)">
<title>dependencies</title>
<polygon fill="#ffffff" stroke="transparent" points="-4,4 -4,-280 500,-280 500,4 -4,4"/>
<text text-anchor="start" x="227.0091" y="-42.4" font-family="sans-serif" font-weight="bold" font-size="14.00" fill="#000000">Legend</text>
<polygon fill="#ffffb3" stroke="transparent" points="14,-10 14,-30 34,-30 34,-10 14,-10"/>
<text text-anchor="start" x="37.629" y="-15.4" font-family="sans-serif" font-size="14.00" fill="#000000"> &#160;Declarations</text>
<polygon fill="#8dd3c7" stroke="transparent" points="127,-10 127,-30 147,-30 147,-10 127,-10"/>
<text text-anchor="start" x="150.7251" y="-15.4" font-family="sans-serif" font-size="14.00" fill="#000000"> &#160;Module</text>
<polygon fill="#80b1d3" stroke="transparent" points="213,-10 213,-30 233,-30 233,-10 213,-10"/>
<text text-anchor="start" x="236.7812" y="-15.4" font-family="sans-serif" font-size="14.00" fill="#000000"> &#160;Bootstrap</text>
<polygon fill="#fdb462" stroke="transparent" points="310,-10 310,-30 330,-30 330,-10 310,-10"/>
<text text-anchor="start" x="333.6732" y="-15.4" font-family="sans-serif" font-size="14.00" fill="#000000"> &#160;Providers</text>
<polygon fill="#fb8072" stroke="transparent" points="406,-10 406,-30 426,-30 426,-10 406,-10"/>
<text text-anchor="start" x="429.7258" y="-15.4" font-family="sans-serif" font-size="14.00" fill="#000000"> &#160;Exports</text>
<g id="clust1" class="cluster">
<title>cluster_UISharedModule</title>
<polygon fill="none" stroke="#000000" stroke-dasharray="1,5" points="141,-70 141,-268 355,-268 355,-70 141,-70"/>
</g>
<g id="clust2" class="cluster">
<title>cluster_UISharedModule_declarations</title>
<polygon fill="none" stroke="#000000" points="267,-78 267,-130 347,-130 347,-78 267,-78"/>
</g>
<g id="clust4" class="cluster">
<title>cluster_UISharedModule_imports</title>
<polygon fill="none" stroke="#000000" points="149,-78 149,-130 259,-130 259,-78 149,-78"/>
</g>
<g id="clust5" class="cluster">
<title>cluster_UISharedModule_exports</title>
<polygon fill="none" stroke="#000000" points="149,-208 149,-260 347,-260 347,-208 149,-208"/>
</g>
<!-- ...PIPES -->
<g id="node1" class="node">
<title>...PIPES</title>
<polygon fill="#ffffb3" stroke="#000000" points="338.561,-122 275.439,-122 275.439,-86 338.561,-86 338.561,-122"/>
<text text-anchor="middle" x="307" y="-99.8" font-family="Times,serif" font-size="14.00" fill="#000000">...PIPES</text>
</g>
<!-- UISharedModule -->
<g id="node2" class="node">
<title>UISharedModule</title>
<polygon fill="#8dd3c7" stroke="#000000" points="304.6896,-187 301.6896,-191 280.6896,-191 277.6896,-187 191.3104,-187 191.3104,-151 304.6896,-151 304.6896,-187"/>
<text text-anchor="middle" x="248" y="-164.8" font-family="Times,serif" font-size="14.00" fill="#000000">UISharedModule</text>
</g>
<!-- ...PIPES&#45;&gt;UISharedModule -->
<g id="edge1" class="edge">
<title>...PIPES&#45;&gt;UISharedModule</title>
<path fill="none" stroke="#000000" d="M290.0321,-122.1061C290.0321,-122.1061 290.0321,-140.991 290.0321,-140.991"/>
<polygon fill="#000000" stroke="#000000" points="286.5322,-140.9909 290.0321,-150.991 293.5322,-140.991 286.5322,-140.9909"/>
</g>
<!-- ...MODULES  -->
<g id="node4" class="node">
<title>...MODULES </title>
<polygon fill="#fb8072" stroke="#000000" points="338.6528,-252 241.3472,-252 241.3472,-216 338.6528,-216 338.6528,-252"/>
<text text-anchor="middle" x="290" y="-229.8" font-family="Times,serif" font-size="14.00" fill="#000000">...MODULES </text>
</g>
<!-- UISharedModule&#45;&gt;...MODULES  -->
<g id="edge3" class="edge">
<title>UISharedModule&#45;&gt;...MODULES </title>
<path fill="none" stroke="#000000" stroke-dasharray="5,2" d="M272.8843,-187.1061C272.8843,-187.1061 272.8843,-205.991 272.8843,-205.991"/>
<polygon fill="#000000" stroke="#000000" points="269.3844,-205.9909 272.8843,-215.991 276.3844,-205.991 269.3844,-205.9909"/>
</g>
<!-- ...PIPES  -->
<g id="node5" class="node">
<title>...PIPES </title>
<polygon fill="#fb8072" stroke="#000000" points="223.0624,-252 156.9376,-252 156.9376,-216 223.0624,-216 223.0624,-252"/>
<text text-anchor="middle" x="190" y="-229.8" font-family="Times,serif" font-size="14.00" fill="#000000">...PIPES </text>
</g>
<!-- UISharedModule&#45;&gt;...PIPES  -->
<g id="edge4" class="edge">
<title>UISharedModule&#45;&gt;...PIPES </title>
<path fill="none" stroke="#000000" stroke-dasharray="5,2" d="M207.3429,-187.1061C207.3429,-187.1061 207.3429,-205.991 207.3429,-205.991"/>
<polygon fill="#000000" stroke="#000000" points="203.843,-205.9909 207.3429,-215.991 210.843,-205.991 203.843,-205.9909"/>
</g>
<!-- ...MODULES -->
<g id="node3" class="node">
<title>...MODULES</title>
<polygon fill="#8dd3c7" stroke="#000000" points="251.1523,-122 248.1523,-126 227.1523,-126 224.1523,-122 156.8477,-122 156.8477,-86 251.1523,-86 251.1523,-122"/>
<text text-anchor="middle" x="204" y="-99.8" font-family="Times,serif" font-size="14.00" fill="#000000">...MODULES</text>
</g>
<!-- ...MODULES&#45;&gt;UISharedModule -->
<g id="edge2" class="edge">
<title>...MODULES&#45;&gt;UISharedModule</title>
<path fill="none" stroke="#000000" d="M221.2407,-122.1061C221.2407,-122.1061 221.2407,-140.991 221.2407,-140.991"/>
<polygon fill="#000000" stroke="#000000" points="217.7408,-140.9909 221.2407,-150.991 224.7408,-140.991 217.7408,-140.9909"/>
</g>
</g>
</svg>
