<svg data-v-5f19e91b="" xmlns="http://www.w3.org/2000/svg" width="613" height="90" viewBox="0 0 613 90"><!----> <!----> <!----> <g data-v-5f19e91b="" id="53a4bafe-560a-e106-5fa8-6cc040e230f8" fill="black" transform="matrix(4.597701082226675,0,0,4.597701082226675,104.72100124131629,-3.942528409445927)"><path d="M5.30 4.33L8.35 14.52L6.94 14.52L6.17 11.92L2.40 11.92L1.65 14.52L0.32 14.52L3.45 4.33L5.30 4.33ZM2.69 10.93L5.88 10.93L5.02 7.88L4.31 5.37L4.31 5.37Q3.91 6.79 3.61 7.81L3.61 7.81L2.69 10.93ZM15.87 10.82L15.87 10.82L15.87 10.82Q15.87 11.45 15.84 11.89L15.84 11.89L15.84 11.89Q15.82 12.33 15.75 12.76L15.75 12.76L15.75 12.76Q15.69 13.19 15.56 13.46L15.56 13.46L15.56 13.46Q15.44 13.73 15.23 13.98L15.23 13.98L15.23 13.98Q15.03 14.22 14.74 14.35L14.74 14.35L14.74 14.35Q14.44 14.48 14.05 14.55L14.05 14.55L14.05 14.55Q13.65 14.62 13.13 14.62L13.13 14.62L13.13 14.62Q11.32 14.62 11.06 13.82L11.06 13.82L11.06 17.06L9.71 17.17L9.71 7.02L10.94 7.02L11.07 7.85L11.07 7.85Q11.48 6.81 13.25 6.81L13.25 6.81L13.25 6.81Q13.62 6.81 13.91 6.84L13.91 6.84L13.91 6.84Q14.21 6.87 14.45 6.95L14.45 6.95L14.45 6.95Q14.70 7.03 14.89 7.13L14.89 7.13L14.89 7.13Q15.07 7.23 15.22 7.39L15.22 7.39L15.22 7.39Q15.37 7.56 15.47 7.73L15.47 7.73L15.47 7.73Q15.57 7.90 15.64 8.17L15.64 8.17L15.64 8.17Q15.72 8.43 15.76 8.68L15.76 8.68L15.76 8.68Q15.80 8.93 15.83 9.30L15.83 9.30L15.83 9.30Q15.85 9.67 15.86 10.00L15.86 10.00L15.86 10.00Q15.87 10.34 15.87 10.82ZM14.52 10.38L14.52 10.38L14.52 10.38Q14.51 9.00 14.48 8.56L14.48 8.56L14.48 8.56Q14.45 8.08 14.12 7.92L14.12 7.92L14.12 7.92Q13.79 7.75 12.81 7.75L12.81 7.75L12.81 7.75Q11.57 7.75 11.22 8.15L11.22 8.15L11.22 8.15Q11.03 8.43 11.03 9.78L11.03 9.78L11.03 9.78Q11.03 10.06 11.04 10.60L11.04 10.60L11.04 10.60Q11.05 11.14 11.05 11.38L11.05 11.38L11.05 11.38Q11.05 11.61 11.04 11.99L11.04 11.99L11.04 11.99Q11.02 12.37 11.02 12.51L11.02 12.51L11.02 12.51Q11.02 12.93 11.15 13.17L11.15 13.17L11.15 13.17Q11.29 13.41 11.69 13.55L11.69 13.55L11.69 13.55Q12.09 13.69 12.81 13.69L12.81 13.69L12.81 13.69Q13.81 13.69 14.16 13.52L14.16 13.52L14.16 13.52Q14.53 13.34 14.53 11.68L14.53 11.68L14.53 11.68Q14.53 11.43 14.53 10.99L14.53 10.99L14.53 10.99Q14.52 10.54 14.52 10.38ZM23.91 10.82L23.91 10.82L23.91 10.82Q23.91 11.45 23.89 11.89L23.89 11.89L23.89 11.89Q23.86 12.33 23.80 12.76L23.80 12.76L23.80 12.76Q23.73 13.19 23.61 13.46L23.61 13.46L23.61 13.46Q23.48 13.73 23.28 13.98L23.28 13.98L23.28 13.98Q23.08 14.22 22.78 14.35L22.78 14.35L22.78 14.35Q22.49 14.48 22.09 14.55L22.09 14.55L22.09 14.55Q21.70 14.62 21.17 14.62L21.17 14.62L21.17 14.62Q19.37 14.62 19.11 13.82L19.11 13.82L19.11 17.06L17.76 17.17L17.76 7.02L18.98 7.02L19.11 7.85L19.11 7.85Q19.53 6.81 21.30 6.81L21.30 6.81L21.30 6.81Q21.66 6.81 21.96 6.84L21.96 6.84L21.96 6.84Q22.26 6.87 22.50 6.95L22.50 6.95L22.50 6.95Q22.74 7.03 22.93 7.13L22.93 7.13L22.93 7.13Q23.12 7.23 23.27 7.39L23.27 7.39L23.27 7.39Q23.41 7.56 23.52 7.73L23.52 7.73L23.52 7.73Q23.62 7.90 23.69 8.17L23.69 8.17L23.69 8.17Q23.76 8.43 23.81 8.68L23.81 8.68L23.81 8.68Q23.85 8.93 23.87 9.30L23.87 9.30L23.87 9.30Q23.90 9.67 23.91 10.00L23.91 10.00L23.91 10.00Q23.91 10.34 23.91 10.82ZM22.57 10.38L22.57 10.38L22.57 10.38Q22.55 9.00 22.52 8.56L22.52 8.56L22.52 8.56Q22.50 8.08 22.17 7.92L22.17 7.92L22.17 7.92Q21.83 7.75 20.86 7.75L20.86 7.75L20.86 7.75Q19.62 7.75 19.27 8.15L19.27 8.15L19.27 8.15Q19.08 8.43 19.08 9.78L19.08 9.78L19.08 9.78Q19.08 10.06 19.09 10.60L19.09 10.60L19.09 10.60Q19.10 11.14 19.10 11.38L19.10 11.38L19.10 11.38Q19.10 11.61 19.08 11.99L19.08 11.99L19.08 11.99Q19.07 12.37 19.07 12.51L19.07 12.51L19.07 12.51Q19.07 12.93 19.20 13.17L19.20 13.17L19.20 13.17Q19.33 13.41 19.73 13.55L19.73 13.55L19.73 13.55Q20.13 13.69 20.86 13.69L20.86 13.69L20.86 13.69Q21.85 13.69 22.20 13.52L22.20 13.52L22.20 13.52Q22.58 13.34 22.58 11.68L22.58 11.68L22.58 11.68Q22.58 11.43 22.57 10.99L22.57 10.99L22.57 10.99Q22.57 10.54 22.57 10.38ZM27.21 4.25L27.21 14.52L25.87 14.52L25.87 4.36L27.21 4.25ZM30.76 7.02L30.76 14.52L29.42 14.52L29.42 7.02L30.76 7.02ZM29.42 4.12L30.76 4.12L30.76 5.30L29.42 5.30L29.42 4.12ZM38.61 9.18L38.61 9.18L37.50 9.37L37.36 8.42L37.36 8.42Q37.30 8.09 37.23 8.00L37.23 8.00L37.23 8.00Q37.05 7.79 36.24 7.77L36.24 7.77L36.24 7.77Q36.05 7.76 35.82 7.76L35.82 7.76L35.82 7.76Q34.89 7.76 34.60 7.86L34.60 7.86L34.60 7.86Q34.29 7.92 34.15 8.48L34.15 8.48L34.15 8.48Q34.00 9.05 34.00 9.87L34.00 9.87L34.01 11.05L34.01 11.05Q34.01 11.30 34.01 11.73L34.01 11.73L34.01 11.73Q34.01 12.29 34.01 12.52L34.01 12.52L34.01 12.52Q34.01 12.75 34.07 13.04L34.07 13.04L34.07 13.04Q34.13 13.33 34.21 13.40L34.21 13.40L34.21 13.40Q34.29 13.47 34.51 13.57L34.51 13.57L34.51 13.57Q34.73 13.67 34.98 13.67L34.98 13.67L34.98 13.67Q35.23 13.68 35.70 13.68L35.70 13.68L35.70 13.68Q36.07 13.68 36.34 13.65L36.34 13.65L36.34 13.65Q36.61 13.62 36.79 13.59L36.79 13.59L36.79 13.59Q36.98 13.55 37.10 13.46L37.10 13.46L37.10 13.46Q37.22 13.36 37.29 13.29L37.29 13.29L37.29 13.29Q37.35 13.21 37.39 13.05L37.39 13.05L37.39 13.05Q37.42 12.89 37.43 12.78L37.43 12.78L37.43 12.78Q37.44 12.66 37.45 12.42L37.45 12.42L37.45 12.42Q37.47 12.19 37.49 12.02L37.49 12.02L38.61 12.22L38.61 12.22Q38.57 12.75 38.52 13.07L38.52 13.07L38.52 13.07Q38.47 13.39 38.35 13.69L38.35 13.69L38.35 13.69Q38.23 13.99 38.05 14.15L38.05 14.15L38.05 14.15Q37.86 14.30 37.55 14.42L37.55 14.42L37.55 14.42Q37.23 14.55 36.81 14.58L36.81 14.58L36.81 14.58Q36.39 14.62 35.76 14.62L35.76 14.62L35.76 14.62Q35.31 14.62 34.95 14.59L34.95 14.59L34.95 14.59Q34.59 14.57 34.30 14.48L34.30 14.48L34.30 14.48Q34.00 14.40 33.78 14.32L33.78 14.32L33.78 14.32Q33.56 14.24 33.40 14.04L33.40 14.04L33.40 14.04Q33.23 13.84 33.12 13.70L33.12 13.70L33.12 13.70Q33.00 13.56 32.93 13.23L32.93 13.23L32.93 13.23Q32.85 12.91 32.81 12.69L32.81 12.69L32.81 12.69Q32.77 12.46 32.75 12.00L32.75 12.00L32.75 12.00Q32.73 11.54 32.73 11.22L32.73 11.22L32.73 11.22Q32.72 10.90 32.72 10.29L32.72 10.29L32.72 10.29Q32.72 9.74 32.74 9.34L32.74 9.34L32.74 9.34Q32.76 8.94 32.83 8.58L32.83 8.58L32.83 8.58Q32.89 8.21 32.99 7.97L32.99 7.97L32.99 7.97Q33.09 7.72 33.25 7.51L33.25 7.51L33.25 7.51Q33.42 7.30 33.64 7.18L33.64 7.18L33.64 7.18Q33.85 7.05 34.17 6.97L34.17 6.97L34.17 6.97Q34.49 6.88 34.87 6.84L34.87 6.84L34.87 6.84Q35.25 6.81 35.75 6.81L35.75 6.81L35.75 6.81Q36.40 6.81 36.84 6.87L36.84 6.87L36.84 6.87Q37.28 6.94 37.63 7.09L37.63 7.09L37.63 7.09Q37.97 7.24 38.17 7.52L38.17 7.52L38.17 7.52Q38.36 7.79 38.47 8.19L38.47 8.19L38.47 8.19Q38.58 8.59 38.61 9.18ZM45.91 9.56L45.91 14.52L44.84 14.52L44.63 13.45L44.63 13.45Q44.42 14.15 43.88 14.39L43.88 14.39L43.88 14.39Q43.35 14.62 42.31 14.62L42.31 14.62L42.31 14.62Q41.63 14.62 41.19 14.49L41.19 14.49L41.19 14.49Q40.76 14.36 40.50 14.04L40.50 14.04L40.50 14.04Q40.24 13.73 40.14 13.27L40.14 13.27L40.14 13.27Q40.04 12.82 40.04 12.10L40.04 12.10L40.04 12.10Q40.04 11.78 40.15 11.53L40.15 11.53L40.15 11.53Q40.26 11.27 40.46 11.09L40.46 11.09L40.46 11.09Q40.65 10.92 40.98 10.79L40.98 10.79L40.98 10.79Q41.30 10.66 41.65 10.58L41.65 10.58L41.65 10.58Q42 10.51 42.50 10.46L42.50 10.46L42.50 10.46Q42.99 10.42 43.46 10.40L43.46 10.40L43.46 10.40Q43.93 10.39 44.56 10.39L44.56 10.39L44.56 8.36L44.56 8.36Q44.56 8.01 44.24 7.88L44.24 7.88L44.24 7.88Q43.91 7.75 43.07 7.75L43.07 7.75L43.07 7.75Q42.48 7.75 42.18 7.77L42.18 7.77L42.18 7.77Q41.89 7.80 41.74 7.93L41.74 7.93L41.74 7.93Q41.58 8.07 41.56 8.20L41.56 8.20L41.56 8.20Q41.54 8.33 41.53 8.68L41.53 8.68L41.53 8.68Q41.52 8.81 41.52 8.89L41.52 8.89L40.48 8.85L40.48 8.85Q40.46 8.74 40.46 8.52L40.46 8.52L40.46 8.52Q40.46 8.07 40.60 7.75L40.60 7.75L40.60 7.75Q40.73 7.43 40.94 7.25L40.94 7.25L40.94 7.25Q41.15 7.07 41.52 6.97L41.52 6.97L41.52 6.97Q41.89 6.86 42.25 6.84L42.25 6.84L42.25 6.84Q42.62 6.81 43.16 6.81L43.16 6.81L43.16 6.81Q43.98 6.81 44.49 6.94L44.49 6.94L44.49 6.94Q45.00 7.06 45.33 7.39L45.33 7.39L45.33 7.39Q45.66 7.72 45.78 8.23L45.78 8.23L45.78 8.23Q45.91 8.74 45.91 9.56L45.91 9.56ZM44.56 12.37L44.56 12.37L44.56 11.20L44.56 11.20Q43.22 11.20 42.49 11.31L42.49 11.31L42.49 11.31Q41.77 11.41 41.52 11.59L41.52 11.59L41.52 11.59Q41.28 11.77 41.28 12.10L41.28 12.10L41.28 12.10Q41.28 12.11 41.28 12.14L41.28 12.14L41.28 12.14Q41.28 13.18 41.45 13.43L41.45 13.43L41.45 13.43Q41.62 13.69 42.50 13.69L42.50 13.69L42.50 13.69Q43.24 13.69 43.71 13.51L43.71 13.51L43.71 13.51Q44.17 13.33 44.35 13.05L44.35 13.05L44.35 13.05Q44.54 12.78 44.56 12.37ZM50.95 13.57L50.95 13.57L50.92 14.53L50.92 14.53Q50.35 14.62 49.88 14.62L49.88 14.62L49.88 14.62Q49.38 14.62 49.06 14.51L49.06 14.51L49.06 14.51Q48.73 14.40 48.57 14.16L48.57 14.16L48.57 14.16Q48.41 13.92 48.34 13.63L48.34 13.63L48.34 13.63Q48.28 13.34 48.28 12.89L48.28 12.89L48.28 7.79L47.26 7.79L47.26 7.02L48.28 7.02L48.28 4.89L49.62 4.78L49.62 7.02L51.00 7.02L51.00 7.79L49.62 7.79L49.62 12.43L49.62 12.43Q49.62 13.17 49.69 13.39L49.69 13.39L49.69 13.39Q49.77 13.61 50.09 13.61L50.09 13.61L50.09 13.61Q50.40 13.61 50.95 13.57ZM54.11 7.02L54.11 14.52L52.77 14.52L52.77 7.02L54.11 7.02ZM52.77 4.12L54.11 4.12L54.11 5.30L52.77 5.30L52.77 4.12ZM59.24 13.68L59.24 13.68L59.24 13.68Q60.21 13.66 60.59 13.54L60.59 13.54L60.59 13.54Q60.97 13.41 60.97 13.05L60.97 13.05L60.97 13.05Q61.04 12.07 61.04 10.79L61.04 10.79L61.04 10.79Q61.04 10.36 61.01 9.57L61.01 9.57L61.01 9.57Q60.98 8.78 60.98 8.40L60.98 8.40L60.98 8.40Q60.98 8.29 60.94 8.19L60.94 8.19L60.94 8.19Q60.90 8.09 60.82 8.03L60.82 8.03L60.82 8.03Q60.73 7.96 60.65 7.92L60.65 7.92L60.65 7.92Q60.56 7.87 60.41 7.84L60.41 7.84L60.41 7.84Q60.25 7.81 60.15 7.79L60.15 7.79L60.15 7.79Q60.04 7.77 59.85 7.77L59.85 7.77L59.85 7.77Q59.65 7.76 59.54 7.76L59.54 7.76L59.54 7.76Q59.44 7.76 59.23 7.76L59.23 7.76L59.23 7.76Q59.03 7.76 58.92 7.76L58.92 7.76L58.92 7.76Q58.82 7.76 58.62 7.77L58.62 7.77L58.62 7.77Q58.43 7.77 58.32 7.79L58.32 7.79L58.32 7.79Q58.21 7.81 58.06 7.84L58.06 7.84L58.06 7.84Q57.91 7.87 57.82 7.92L57.82 7.92L57.82 7.92Q57.74 7.96 57.65 8.03L57.65 8.03L57.65 8.03Q57.57 8.09 57.53 8.19L57.53 8.19L57.53 8.19Q57.49 8.29 57.49 8.40L57.49 8.40L57.49 8.40Q57.49 8.78 57.46 9.57L57.46 9.57L57.46 9.57Q57.42 10.36 57.42 10.79L57.42 10.79L57.42 10.79Q57.42 12.07 57.50 13.05L57.50 13.05L57.50 13.05Q57.50 13.41 57.90 13.55L57.90 13.55L57.90 13.55Q58.30 13.68 59.24 13.68ZM59.23 14.62L59.23 14.62L59.23 14.62Q58.47 14.62 57.96 14.56L57.96 14.56L57.96 14.56Q57.46 14.50 57.09 14.29L57.09 14.29L57.09 14.29Q56.72 14.08 56.53 13.85L56.53 13.85L56.53 13.85Q56.34 13.61 56.23 13.10L56.23 13.10L56.23 13.10Q56.12 12.59 56.10 12.09L56.10 12.09L56.10 12.09Q56.08 11.59 56.08 10.71L56.08 10.71L56.08 10.71Q56.08 10.04 56.09 9.60L56.09 9.60L56.09 9.60Q56.11 9.15 56.17 8.73L56.17 8.73L56.17 8.73Q56.23 8.30 56.32 8.04L56.32 8.04L56.32 8.04Q56.42 7.77 56.59 7.54L56.59 7.54L56.59 7.54Q56.77 7.30 56.98 7.18L56.98 7.18L56.98 7.18Q57.20 7.05 57.54 6.96L57.54 6.96L57.54 6.96Q57.88 6.87 58.28 6.84L58.28 6.84L58.28 6.84Q58.68 6.81 59.23 6.81L59.23 6.81L59.23 6.81Q59.79 6.81 60.19 6.84L60.19 6.84L60.19 6.84Q60.59 6.87 60.93 6.96L60.93 6.96L60.93 6.96Q61.26 7.05 61.48 7.18L61.48 7.18L61.48 7.18Q61.70 7.30 61.88 7.54L61.88 7.54L61.88 7.54Q62.05 7.77 62.14 8.04L62.14 8.04L62.14 8.04Q62.23 8.30 62.30 8.73L62.30 8.73L62.30 8.73Q62.36 9.15 62.37 9.60L62.37 9.60L62.37 9.60Q62.39 10.04 62.39 10.71L62.39 10.71L62.39 10.71Q62.39 11.59 62.37 12.09L62.37 12.09L62.37 12.09Q62.34 12.59 62.23 13.10L62.23 13.10L62.23 13.10Q62.13 13.61 61.93 13.85L61.93 13.85L61.93 13.85Q61.74 14.09 61.37 14.29L61.37 14.29L61.37 14.29Q61.00 14.50 60.50 14.56L60.50 14.56L60.50 14.56Q59.99 14.62 59.23 14.62ZM70.22 10.36L70.22 14.52L68.87 14.52L68.87 9.98L68.87 9.98Q68.87 9.54 68.87 9.28L68.87 9.28L68.87 9.28Q68.87 9.02 68.84 8.75L68.84 8.75L68.84 8.75Q68.82 8.48 68.79 8.35L68.79 8.35L68.79 8.35Q68.76 8.22 68.69 8.08L68.69 8.08L68.69 8.08Q68.62 7.95 68.54 7.90L68.54 7.90L68.54 7.90Q68.47 7.85 68.33 7.81L68.33 7.81L68.33 7.81Q68.18 7.77 68.04 7.76L68.04 7.76L68.04 7.76Q67.89 7.75 67.66 7.75L67.66 7.75L67.66 7.75Q67.14 7.75 66.77 7.81L66.77 7.81L66.77 7.81Q66.40 7.87 66.17 7.97L66.17 7.97L66.17 7.97Q65.94 8.07 65.81 8.26L65.81 8.26L65.81 8.26Q65.69 8.44 65.64 8.66L65.64 8.66L65.64 8.66Q65.59 8.87 65.59 9.19L65.59 9.19L65.59 9.19Q65.59 9.37 65.61 9.81L65.61 9.81L65.61 9.81Q65.63 10.25 65.63 10.52L65.63 10.52L65.63 14.52L64.29 14.52L64.29 7.02L65.52 7.02L65.65 7.86L65.65 7.86Q65.82 7.30 66.43 7.05L66.43 7.05L66.43 7.05Q67.04 6.81 67.88 6.81L67.88 6.81L67.88 6.81Q68.28 6.81 68.58 6.86L68.58 6.86L68.58 6.86Q68.89 6.90 69.13 7.02L69.13 7.02L69.13 7.02Q69.37 7.13 69.55 7.27L69.55 7.27L69.55 7.27Q69.72 7.42 69.84 7.65L69.84 7.65L69.84 7.65Q69.96 7.89 70.03 8.13L70.03 8.13L70.03 8.13Q70.11 8.38 70.15 8.75L70.15 8.75L70.15 8.75Q70.19 9.12 70.21 9.48L70.21 9.48L70.21 9.48Q70.22 9.85 70.22 10.36L70.22 10.36ZM82.67 8.53L82.67 8.53L82.67 8.53Q82.67 9.47 82.66 10.07L82.66 10.07L82.66 10.07Q82.65 10.68 82.60 11.31L82.60 11.31L82.60 11.31Q82.54 11.94 82.48 12.31L82.48 12.31L82.48 12.31Q82.42 12.68 82.25 13.07L82.25 13.07L82.25 13.07Q82.09 13.45 81.93 13.64L81.93 13.64L81.93 13.64Q81.76 13.83 81.44 14.03L81.44 14.03L81.44 14.03Q81.11 14.23 80.79 14.29L80.79 14.29L80.79 14.29Q80.48 14.36 79.94 14.43L79.94 14.43L79.94 14.43Q79.41 14.50 78.89 14.51L78.89 14.51L78.89 14.51Q78.37 14.52 77.58 14.52L77.58 14.52L75.11 14.52L75.11 4.33L78.63 4.33L78.63 4.33Q79.50 4.33 80.09 4.41L80.09 4.41L80.09 4.41Q80.68 4.48 81.15 4.67L81.15 4.67L81.15 4.67Q81.62 4.87 81.90 5.16L81.90 5.16L81.90 5.16Q82.18 5.46 82.36 5.94L82.36 5.94L82.36 5.94Q82.54 6.43 82.61 7.04L82.61 7.04L82.61 7.04Q82.67 7.65 82.67 8.53ZM81.30 10.28L81.30 8.55L81.30 8.55Q81.30 7.92 81.30 7.65L81.30 7.65L81.30 7.65Q81.29 7.37 81.25 6.95L81.25 6.95L81.25 6.95Q81.20 6.54 81.13 6.38L81.13 6.38L81.13 6.38Q81.05 6.23 80.88 5.99L80.88 5.99L80.88 5.99Q80.71 5.75 80.48 5.68L80.48 5.68L80.48 5.68Q80.25 5.62 79.87 5.52L79.87 5.52L79.87 5.52Q79.50 5.42 79.04 5.40L79.04 5.40L79.04 5.40Q78.59 5.39 77.93 5.39L77.93 5.39L76.49 5.39L76.49 13.47L78.13 13.47L78.13 13.47Q78.72 13.47 79.05 13.46L79.05 13.46L79.05 13.46Q79.38 13.45 79.76 13.41L79.76 13.41L79.76 13.41Q80.14 13.36 80.33 13.28L80.33 13.28L80.33 13.28Q80.51 13.20 80.72 13.03L80.72 13.03L80.72 13.03Q80.93 12.87 81.01 12.65L81.01 12.65L81.01 12.65Q81.09 12.43 81.18 12.08L81.18 12.08L81.18 12.08Q81.26 11.73 81.28 11.31L81.28 11.31L81.28 11.31Q81.30 10.88 81.30 10.28L81.30 10.28ZM90.51 10.66L90.51 10.66L90.51 10.66Q89.69 10.75 89.49 10.76L89.49 10.76L85.76 10.76L85.76 10.76Q85.77 11.75 85.82 12.93L85.82 12.93L85.82 12.93Q85.85 13.39 86.21 13.54L86.21 13.54L86.21 13.54Q86.57 13.69 87.61 13.69L87.61 13.69L87.61 13.69Q88.00 13.69 88.28 13.65L88.28 13.65L88.28 13.65Q88.56 13.62 88.73 13.55L88.73 13.55L88.73 13.55Q88.91 13.47 89.01 13.40L89.01 13.40L89.01 13.40Q89.11 13.32 89.15 13.17L89.15 13.17L89.15 13.17Q89.20 13.02 89.22 12.91L89.22 12.91L89.22 12.91Q89.23 12.80 89.24 12.59L89.24 12.59L89.24 12.59Q89.26 12.37 89.28 12.24L89.28 12.24L90.32 12.43L90.32 12.43Q90.31 12.91 90.25 13.24L90.25 13.24L90.25 13.24Q90.20 13.57 90.07 13.82L90.07 13.82L90.07 13.82Q89.94 14.08 89.76 14.22L89.76 14.22L89.76 14.22Q89.58 14.37 89.28 14.46L89.28 14.46L89.28 14.46Q88.98 14.56 88.62 14.59L88.62 14.59L88.62 14.59Q88.26 14.62 87.73 14.62L87.73 14.62L87.73 14.62Q87.04 14.62 86.54 14.54L86.54 14.54L86.54 14.54Q86.03 14.46 85.67 14.35L85.67 14.35L85.67 14.35Q85.31 14.23 85.08 13.97L85.08 13.97L85.08 13.97Q84.85 13.71 84.71 13.47L84.71 13.47L84.71 13.47Q84.58 13.23 84.52 12.76L84.52 12.76L84.52 12.76Q84.46 12.30 84.44 11.92L84.44 11.92L84.44 11.92Q84.42 11.54 84.42 10.87L84.42 10.87L84.42 10.87Q84.42 9.93 84.45 9.40L84.45 9.40L84.45 9.40Q84.47 8.87 84.58 8.34L84.58 8.34L84.58 8.34Q84.69 7.81 84.88 7.57L84.88 7.57L84.88 7.57Q85.06 7.33 85.42 7.13L85.42 7.13L85.42 7.13Q85.78 6.92 86.28 6.87L86.28 6.87L86.28 6.87Q86.77 6.81 87.53 6.81L87.53 6.81L87.53 6.81Q88.05 6.81 88.44 6.84L88.44 6.84L88.44 6.84Q88.82 6.87 89.14 6.97L89.14 6.97L89.14 6.97Q89.46 7.06 89.67 7.18L89.67 7.18L89.67 7.18Q89.88 7.31 90.04 7.55L90.04 7.55L90.04 7.55Q90.20 7.79 90.29 8.04L90.29 8.04L90.29 8.04Q90.37 8.30 90.43 8.72L90.43 8.72L90.43 8.72Q90.48 9.15 90.49 9.58L90.49 9.58L90.49 9.58Q90.51 10.01 90.51 10.66ZM85.77 10.04L85.77 10.04L89.16 10.04L89.16 10.04Q89.15 9.17 89.09 8.44L89.09 8.44L89.09 8.44Q89.07 8.03 88.73 7.89L88.73 7.89L88.73 7.89Q88.40 7.75 87.52 7.75L87.52 7.75L87.52 7.75Q86.54 7.75 86.28 7.85L86.28 7.85L86.28 7.85Q86.17 7.89 86.08 7.97L86.08 7.97L86.08 7.97Q86.00 8.06 85.94 8.22L85.94 8.22L85.94 8.22Q85.89 8.37 85.86 8.51L85.86 8.51L85.86 8.51Q85.83 8.65 85.81 8.89L85.81 8.89L85.81 8.89Q85.79 9.13 85.78 9.27L85.78 9.27L85.78 9.27Q85.78 9.40 85.77 9.67L85.77 9.67L85.77 9.67Q85.77 9.95 85.77 10.04ZM102.28 9.92L102.28 14.52L100.93 14.52L100.93 9.97L100.93 9.97Q100.93 9.19 100.95 8.79L100.95 8.79L100.95 8.79Q100.95 8.54 100.92 8.39L100.92 8.39L100.92 8.39Q100.88 8.24 100.77 8.07L100.77 8.07L100.77 8.07Q100.65 7.91 100.39 7.83L100.39 7.83L100.39 7.83Q100.12 7.75 99.70 7.75L99.70 7.75L99.70 7.75Q99.24 7.75 98.93 7.81L98.93 7.81L98.93 7.81Q98.62 7.87 98.43 7.97L98.43 7.97L98.43 7.97Q98.25 8.07 98.14 8.25L98.14 8.25L98.14 8.25Q98.04 8.44 98.01 8.64L98.01 8.64L98.01 8.64Q97.98 8.84 97.98 9.16L97.98 9.16L97.98 9.16Q97.98 9.31 97.99 9.70L97.99 9.70L97.99 9.70Q98 10.08 98 10.32L98 10.32L98 14.52L96.65 14.52L96.65 9.72L96.65 9.72Q96.65 9.69 96.65 9.63L96.65 9.63L96.65 9.63Q96.65 9.16 96.65 8.96L96.65 8.96L96.65 8.96Q96.64 8.76 96.60 8.49L96.60 8.49L96.60 8.49Q96.55 8.22 96.47 8.12L96.47 8.12L96.47 8.12Q96.38 8.03 96.20 7.92L96.20 7.92L96.20 7.92Q96.02 7.81 95.77 7.78L95.77 7.78L95.77 7.78Q95.52 7.75 95.13 7.75L95.13 7.75L95.13 7.75Q94.88 7.75 94.66 7.78L94.66 7.78L94.66 7.78Q94.44 7.81 94.23 7.88L94.23 7.88L94.23 7.88Q94.03 7.95 93.90 8.08L93.90 8.08L93.90 8.08Q93.77 8.21 93.76 8.39L93.76 8.39L93.76 8.39Q93.67 9.30 93.67 10.38L93.67 10.38L93.67 14.52L92.33 14.52L92.33 7.02L93.56 7.02L93.69 7.84L93.69 7.84Q93.96 7.29 94.47 7.05L94.47 7.05L94.47 7.05Q94.99 6.82 95.77 6.82L95.77 6.82L95.77 6.82Q96.54 6.82 97.00 7.07L97.00 7.07L97.00 7.07Q97.46 7.31 97.67 7.88L97.67 7.88L97.67 7.88Q98.22 6.81 99.83 6.81L99.83 6.81L99.83 6.81Q100.36 6.81 100.73 6.87L100.73 6.87L100.73 6.87Q101.10 6.92 101.38 7.08L101.38 7.08L101.38 7.08Q101.66 7.24 101.83 7.46L101.83 7.46L101.83 7.46Q102.00 7.68 102.10 8.04L102.10 8.04L102.10 8.04Q102.20 8.41 102.24 8.85L102.24 8.85L102.24 8.85Q102.28 9.28 102.28 9.92L102.28 9.92ZM107.32 13.68L107.32 13.68L107.32 13.68Q108.29 13.66 108.67 13.54L108.67 13.54L108.67 13.54Q109.05 13.41 109.05 13.05L109.05 13.05L109.05 13.05Q109.12 12.07 109.12 10.79L109.12 10.79L109.12 10.79Q109.12 10.36 109.09 9.57L109.09 9.57L109.09 9.57Q109.05 8.78 109.05 8.40L109.05 8.40L109.05 8.40Q109.05 8.29 109.02 8.19L109.02 8.19L109.02 8.19Q108.98 8.09 108.89 8.03L108.89 8.03L108.89 8.03Q108.81 7.96 108.72 7.92L108.72 7.92L108.72 7.92Q108.64 7.87 108.48 7.84L108.48 7.84L108.48 7.84Q108.33 7.81 108.22 7.79L108.22 7.79L108.22 7.79Q108.12 7.77 107.92 7.77L107.92 7.77L107.92 7.77Q107.73 7.76 107.62 7.76L107.62 7.76L107.62 7.76Q107.52 7.76 107.31 7.76L107.31 7.76L107.31 7.76Q107.11 7.76 107.00 7.76L107.00 7.76L107.00 7.76Q106.89 7.76 106.70 7.77L106.70 7.77L106.70 7.77Q106.50 7.77 106.40 7.79L106.40 7.79L106.40 7.79Q106.29 7.81 106.14 7.84L106.14 7.84L106.14 7.84Q105.98 7.87 105.90 7.92L105.90 7.92L105.90 7.92Q105.81 7.96 105.73 8.03L105.73 8.03L105.73 8.03Q105.64 8.09 105.60 8.19L105.60 8.19L105.60 8.19Q105.57 8.29 105.57 8.40L105.57 8.40L105.57 8.40Q105.57 8.78 105.53 9.57L105.53 9.57L105.53 9.57Q105.50 10.36 105.50 10.79L105.50 10.79L105.50 10.79Q105.50 12.07 105.57 13.05L105.57 13.05L105.57 13.05Q105.57 13.41 105.97 13.55L105.97 13.55L105.97 13.55Q106.37 13.68 107.32 13.68ZM107.30 14.62L107.30 14.62L107.30 14.62Q106.54 14.62 106.04 14.56L106.04 14.56L106.04 14.56Q105.53 14.50 105.17 14.29L105.17 14.29L105.17 14.29Q104.80 14.08 104.61 13.85L104.61 13.85L104.61 13.85Q104.42 13.61 104.31 13.10L104.31 13.10L104.31 13.10Q104.20 12.59 104.18 12.09L104.18 12.09L104.18 12.09Q104.15 11.59 104.15 10.71L104.15 10.71L104.15 10.71Q104.15 10.04 104.17 9.60L104.17 9.60L104.17 9.60Q104.19 9.15 104.25 8.73L104.25 8.73L104.25 8.73Q104.31 8.30 104.40 8.04L104.40 8.04L104.40 8.04Q104.49 7.77 104.67 7.54L104.67 7.54L104.67 7.54Q104.84 7.30 105.06 7.18L105.06 7.18L105.06 7.18Q105.28 7.05 105.62 6.96L105.62 6.96L105.62 6.96Q105.96 6.87 106.36 6.84L106.36 6.84L106.36 6.84Q106.76 6.81 107.31 6.81L107.31 6.81L107.31 6.81Q107.86 6.81 108.26 6.84L108.26 6.84L108.26 6.84Q108.66 6.87 109.00 6.96L109.00 6.96L109.00 6.96Q109.34 7.05 109.56 7.18L109.56 7.18L109.56 7.18Q109.78 7.30 109.95 7.54L109.95 7.54L109.95 7.54Q110.13 7.77 110.22 8.04L110.22 8.04L110.22 8.04Q110.31 8.30 110.37 8.73L110.37 8.73L110.37 8.73Q110.43 9.15 110.45 9.60L110.45 9.60L110.45 9.60Q110.47 10.04 110.47 10.71L110.47 10.71L110.47 10.71Q110.47 11.59 110.44 12.09L110.44 12.09L110.44 12.09Q110.42 12.59 110.31 13.10L110.31 13.10L110.31 13.10Q110.20 13.61 110.01 13.85L110.01 13.85L110.01 13.85Q109.81 14.09 109.45 14.29L109.45 14.29L109.45 14.29Q109.08 14.50 108.58 14.56L108.58 14.56L108.58 14.56Q108.07 14.62 107.30 14.62Z"></path></g> <!----> <g data-v-5f19e91b="" id="efb0c28d-6449-475a-5530-4035be31bf39" transform="matrix(0.9311950924321137,0,0,0.9311950924321137,-2.8278695991923968,-0.8916318899992319)" stroke="none" fill="black"><path d="M10.9 49.2c.5.7.4 1.2 0 1.8-2.1 3.1-4.1 6.3-6.1 9.4-1.9 3.1-.7 6.6 2.7 7.9 3.5 1.3 7 2.7 10.5 4 .7.3 1 .6 1 1.4.2 3.5.6 7.1.5 10.6 0 3.6 3.1 6.8 7.4 5.4 3.4-1.1 6.9-1.9 10.4-2.9.7-.2 1.1-.1 1.6.5 2.3 2.9 4.6 5.7 6.9 8.6 2.6 3.1 6.2 3.1 8.8 0 2.3-2.9 4.6-5.7 6.9-8.6.4-.6.8-.7 1.5-.5 3.6 1 7.2 1.9 10.8 2.9 3.7 1 6.8-1.3 7-5l.6-11.1c0-.9.4-1.2 1.1-1.5l10.2-3.9c3.7-1.4 4.8-5 2.7-8.3-2-3.1-4-6.2-6-9.2-.5-.7-.4-1.2 0-1.8 2-3 3.9-6 5.9-9 2.3-3.6 1.1-7.1-2.9-8.5-3.4-1.2-6.7-2.5-10.1-3.8-.7-.3-1-.7-1-1.4-.2-3.7-.4-7.3-.6-11-.2-3.9-3.3-6.1-7-5.1-3.5.9-7.1 1.9-10.6 2.9-.8.2-1.2.1-1.7-.6-2.3-2.8-4.6-5.6-6.9-8.5-2.5-3.1-6.2-3.1-8.8 0-2.3 2.8-4.5 5.6-6.7 8.4-.6.8-1.1.9-2.1.7-3.5-1-6.9-1.9-9.4-2.6-4.8-1.2-7.7.8-7.9 4.8-.3 3.7-.4 7.4-.6 11.1 0 .8-.3 1.1-1 1.4-3.5 1.3-6.9 2.6-10.4 4C4 33.1 2.9 36.6 5 39.9c1.8 3.1 3.8 6.2 5.9 9.3zM50 25.4c13.6 0 24.6 11 24.6 24.6 0 13.6-11 24.6-24.6 24.6-13.6 0-24.6-11-24.6-24.6 0-13.6 11-24.6 24.6-24.6zM36.2 50c0-7.6 6.2-13.8 13.8-13.8.6 0 1.2.1 1.8.1-1.3 1.5-2.1 3.4-2.1 5.6 0 4.6 3.8 8.4 8.4 8.4 2.2 0 4.1-.8 5.6-2.1.1.6.1 1.2.1 1.8 0 7.6-6.2 13.8-13.8 13.8-7.6 0-13.8-6.2-13.8-13.8z"></path></g></svg>