<?xml version="1.0" standalone="no"?>
<!DOCTYPE svg PUBLIC "-//W3C//DTD SVG 20010904//EN"
 "http://www.w3.org/TR/2001/REC-SVG-20010904/DTD/svg10.dtd">
<svg version="1.0" xmlns="http://www.w3.org/2000/svg"
 width="700.000000pt" height="700.000000pt" viewBox="0 0 700.000000 700.000000"
 preserveAspectRatio="xMidYMid meet">
<metadata>
Created by potrace 1.11, written by Peter Selinger 2001-2013
</metadata>
<g transform="translate(0.000000,700.000000) scale(0.100000,-0.100000)"
fill="#000000" stroke="none">
<path d="M3432 6024 c-93 -24 -123 -54 -357 -347 -103 -130 -191 -231 -206
-237 -30 -13 -15 -16 -334 72 -285 78 -369 90 -459 64 -73 -21 -136 -81 -160
-152 -17 -50 -28 -182 -46 -528 -8 -161 -12 -192 -27 -207 -10 -10 -148 -68
-308 -130 -334 -128 -328 -125 -378 -174 -82 -80 -105 -194 -59 -298 25 -57
155 -271 270 -445 76 -115 87 -137 83 -169 -1 -7 -74 -123 -163 -260 -198
-304 -213 -334 -213 -429 1 -58 5 -78 28 -116 30 -51 71 -89 127 -118 21 -11
163 -67 316 -125 154 -58 287 -114 297 -123 20 -20 33 -161 46 -492 6 -165 10
-202 28 -241 48 -107 142 -170 257 -171 45 0 107 13 236 50 328 95 441 123
461 117 11 -4 109 -118 218 -254 109 -135 213 -260 232 -275 112 -95 257 -91
368 9 22 20 127 144 231 276 105 131 199 240 208 243 10 3 152 -30 317 -75
165 -44 328 -83 361 -86 155 -14 282 96 298 257 4 30 13 181 21 335 9 154 18
288 21 298 7 24 25 32 314 142 300 115 356 141 398 189 52 60 66 94 66 171 1
94 -14 124 -219 439 -135 208 -166 262 -161 281 4 14 72 125 153 247 174 265
205 318 222 381 32 114 -28 240 -143 299 -22 12 -164 67 -314 124 -150 56
-284 110 -297 118 -31 20 -31 24 -50 377 -10 193 -21 314 -30 347 -21 69 -70
129 -130 161 -42 22 -63 26 -130 25 -68 0 -123 -12 -378 -83 -164 -45 -307
-79 -317 -76 -10 3 -111 120 -224 259 -113 140 -222 266 -241 280 -72 55 -151
72 -233 50z m279 -1260 c516 -83 932 -488 1046 -1014 25 -119 25 -391 0 -510
-98 -455 -421 -821 -853 -968 -249 -85 -549 -87 -807 -6 -402 127 -726 458
-842 859 -143 496 2 997 390 1343 282 253 671 361 1066 296z"/>
<path d="M3346 4203 c-254 -54 -453 -232 -544 -486 -23 -65 -26 -86 -26 -222
0 -136 3 -157 26 -222 93 -261 292 -435 558 -489 151 -30 303 -8 460 69 69 33
102 58 175 132 149 148 215 305 215 507 l0 99 -32 -24 c-94 -71 -212 -99 -331
-79 -94 16 -168 54 -238 122 -89 87 -129 183 -130 310 0 89 18 155 65 232 27
45 31 58 19 62 -27 11 -147 5 -217 -11z"/>
</g>
</svg>
