<svg data-v-1084b650="" xmlns="http://www.w3.org/2000/svg" viewBox="0 0 300 300"><!----> <!----> <rect data-v-1084b650="" fill="#ffffff" x="0" y="0" width="300px" height="300px" class="logo-background-square"></rect> <!----> <g data-v-1084b650="" id="c1ada4a4-1f35-da52-3b24-0acff54604c1" fill="#2e3034" transform="matrix(3.3999999999999995,0,0,3.3999999999999995,30.761997318267845,144.4613998413086)"><path d="M9.77 8.43L12.24 8.43L10.99 17.18L7.31 17.18L6.30 11.35L5.28 17.18L1.58 17.18L0.35 8.43L2.81 8.43L3.67 14.83L3.79 14.83L4.96 8.43L7.63 8.43L8.79 14.83L8.92 14.83L9.77 8.43ZM16.84 15.55L16.84 15.55Q18.03 15.55 19.32 15.19L19.32 15.19L19.63 16.91L19.63 16.91Q18.24 17.37 16.58 17.37L16.58 17.37L16.58 17.37Q14.73 17.37 13.92 16.51L13.92 16.51L13.92 16.51Q13.10 15.65 13.10 13.68L13.10 13.68L13.10 13.68Q13.10 11.72 13.94 10.85L13.94 10.85L13.94 10.85Q14.77 9.98 16.63 9.98L16.63 9.98L16.63 9.98Q17.88 9.98 18.56 10.19L18.56 10.19L18.56 10.19Q19.24 10.40 19.52 10.89L19.52 10.89L19.52 10.89Q19.81 11.38 19.81 12.29L19.81 12.29L19.81 12.29Q19.81 13.19 19.45 13.68L19.45 13.68L19.45 13.68Q19.08 14.17 18.21 14.38L18.21 14.38L18.21 14.38Q17.35 14.59 15.75 14.59L15.75 14.59L15.75 15.47L15.75 15.47Q16.14 15.55 16.84 15.55L16.84 15.55ZM16.76 11.80L16.76 11.80Q16.18 11.80 15.97 11.93L15.97 11.93L15.97 11.93Q15.75 12.05 15.75 12.40L15.75 12.40L15.75 13.30L16.58 13.30L16.58 13.30Q17.15 13.30 17.37 13.17L17.37 13.17L17.37 13.17Q17.58 13.03 17.58 12.67L17.58 12.67L17.58 11.80L16.76 11.80ZM25.30 9.97L25.30 9.97Q26.35 9.97 26.98 10.34L26.98 10.34L26.98 10.34Q27.61 10.71 27.90 11.52L27.90 11.52L27.90 11.52Q28.20 12.33 28.20 13.68L28.20 13.68L28.20 13.68Q28.20 15.02 27.85 15.83L27.85 15.83L27.85 15.83Q27.51 16.63 26.77 17.00L26.77 17.00L26.77 17.00Q26.04 17.37 24.81 17.37L24.81 17.37L24.81 17.37Q23.79 17.37 22.97 17.25L22.97 17.25L22.97 17.25Q22.16 17.12 21.31 16.84L21.31 16.84L21.31 8.02L23.77 7.83L23.77 10.23L23.77 10.23Q24.36 9.97 25.30 9.97L25.30 9.97ZM25.55 15.13L25.55 11.84L24.35 11.84L24.35 11.84Q24.01 11.84 23.89 11.92L23.89 11.92L23.89 11.92Q23.77 12.00 23.77 12.22L23.77 12.22L23.77 15.50L24.99 15.50L24.99 15.50Q25.31 15.50 25.43 15.42L25.43 15.42L25.43 15.42Q25.55 15.34 25.55 15.13L25.55 15.13ZM34.99 14.88L34.99 17.18L32.52 17.18L32.52 8.43L36.37 8.43L36.37 8.43Q38.07 8.43 38.79 9.16L38.79 9.16L38.79 9.16Q39.52 9.90 39.52 11.59L39.52 11.59L39.52 11.59Q39.52 13.29 38.81 14.08L38.81 14.08L38.81 14.08Q38.09 14.88 36.58 14.88L36.58 14.88L34.99 14.88ZM34.99 13.08L36.29 13.08L36.29 13.08Q36.65 13.08 36.79 12.95L36.79 12.95L36.79 12.95Q36.93 12.82 36.93 12.49L36.93 12.49L36.93 11.05L36.93 11.05Q36.93 10.71 36.79 10.58L36.79 10.58L36.79 10.58Q36.65 10.46 36.29 10.46L36.29 10.46L34.99 10.46L34.99 13.08ZM43.81 17.37L43.81 17.37Q42.53 17.37 41.76 17.00L41.76 17.00L41.76 17.00Q40.99 16.62 40.63 15.81L40.63 15.81L40.63 15.81Q40.26 15.01 40.26 13.68L40.26 13.68L40.26 13.68Q40.26 12.35 40.63 11.54L40.63 11.54L40.63 11.54Q40.99 10.72 41.76 10.35L41.76 10.35L41.76 10.35Q42.53 9.98 43.81 9.98L43.81 9.98L43.81 9.98Q45.09 9.98 45.87 10.35L45.87 10.35L45.87 10.35Q46.65 10.72 47.00 11.54L47.00 11.54L47.00 11.54Q47.36 12.35 47.36 13.68L47.36 13.68L47.36 13.68Q47.36 15.01 47.00 15.81L47.00 15.81L47.00 15.81Q46.63 16.62 45.86 17.00L45.86 17.00L45.86 17.00Q45.08 17.37 43.81 17.37L43.81 17.37ZM42.91 15.50L44.16 15.50L44.16 15.50Q44.49 15.50 44.61 15.42L44.61 15.42L44.61 15.42Q44.73 15.34 44.73 15.12L44.73 15.12L44.73 11.86L43.48 11.86L43.48 11.86Q43.15 11.86 43.03 11.94L43.03 11.94L43.03 11.94Q42.91 12.01 42.91 12.24L42.91 12.24L42.91 15.50ZM49.94 10.18L50.64 11.14L50.64 11.14Q51.58 10.23 52.68 9.97L52.68 9.97L52.84 12.36L52.84 12.36Q52.47 12.42 51.95 12.62L51.95 12.62L51.95 12.62Q51.44 12.82 51.18 13.01L51.18 13.01L51.18 17.18L48.72 17.18L48.72 10.18L49.94 10.18ZM57.58 11.79L56.55 11.79L56.55 15.41L56.55 15.41Q56.99 15.48 57.41 15.50L57.41 15.50L57.30 17.16L57.30 17.16Q56.36 17.37 55.71 17.37L55.71 17.37L55.71 17.37Q54.88 17.37 54.48 17.03L54.48 17.03L54.48 17.03Q54.08 16.69 54.08 15.96L54.08 15.96L54.08 11.79L53.31 11.79L53.31 10.18L54.08 10.18L54.08 8.97L56.55 8.36L56.55 10.18L57.58 10.18L57.58 11.79ZM62.01 9.98L62.01 9.98Q63.62 9.98 64.34 10.54L64.34 10.54L64.34 10.54Q65.07 11.09 65.07 12.32L65.07 12.32L65.07 17.18L63.85 17.18L63.24 16.48L63.24 16.48Q62.17 17.37 60.83 17.37L60.83 17.37L60.83 17.37Q59.58 17.37 59.02 16.82L59.02 16.82L59.02 16.82Q58.45 16.27 58.45 15.06L58.45 15.06L58.45 15.06Q58.45 14.17 58.79 13.68L58.79 13.68L58.79 13.68Q59.14 13.19 59.95 12.98L59.95 12.98L59.95 12.98Q60.76 12.77 62.24 12.77L62.24 12.77L62.61 12.77L62.61 11.89L62.61 11.89Q62.31 11.80 61.74 11.80L61.74 11.80L61.74 11.80Q60.48 11.80 59.07 12.17L59.07 12.17L58.77 10.44L58.77 10.44Q60.23 9.98 62.01 9.98L62.01 9.98ZM61.61 15.68L61.61 15.68Q62.19 15.68 62.40 15.55L62.40 15.55L62.40 15.55Q62.61 15.43 62.61 15.08L62.61 15.08L62.61 14.06L61.73 14.06L61.73 14.06Q61.15 14.06 60.93 14.19L60.93 14.19L60.93 14.19Q60.72 14.32 60.72 14.69L60.72 14.69L60.72 15.68L61.61 15.68ZM69.12 15.41L69.12 15.41Q69.48 15.47 69.79 15.50L69.79 15.50L69.68 17.16L69.68 17.16Q68.91 17.37 68.28 17.37L68.28 17.37L68.28 17.37Q67.45 17.37 67.05 17.03L67.05 17.03L67.05 17.03Q66.65 16.69 66.65 15.96L66.65 15.96L66.65 8.08L69.12 7.87L69.12 15.41Z"></path></g> <!----> <g data-v-1084b650="" id="7a5392ee-8783-2958-f018-ec36aaed285f" stroke="none" fill="#488eff" transform="matrix(0.24798166938847832,0,0,0.24798166938847832,112.81836691576329,91.7193498267835)"><svg xmlns="http://www.w3.org/2000/svg" viewBox="0 0 100 100"><path d="M99.7 76.4L59.9 7.5c-.4-.7-1.2-1.1-2-1.1H42c-.8 0-1.6.4-2 1.1L.3 76.4c-.4.7-.4 1.6 0 2.3l8 13.8c.4.7 1.2 1.1 2 1.1h79.5c.8 0 1.6-.4 2-1.1l8-13.8c.3-.7.3-1.6-.1-2.3zM43.4 11H54L24.2 62.6c-.4.7-.4 1.6 0 2.3.4.7 1.2 1.1 2 1.1h30.5l5.3 9.2H6.3L43.4 11zM50 54.6l4 6.9h-8l4-6.9zM6.3 79.8h59.6c.8 0 1.6-.4 2-1.1s.4-1.6 0-2.3L52.7 50l5.3-9.2L85.8 89H11.6l-5.3-9.2zm83.5 6.9L59.9 35.1c-.4-.7-1.2-1.1-2-1.1s-1.6.4-2 1.1L40.7 61.5H30.1L58 13.3l37.1 64.3-5.3 9.1z"></path></svg></g></svg>