<?xml version="1.0" standalone="no"?>
<!DOCTYPE svg PUBLIC "-//W3C//DTD SVG 20010904//EN"
 "http://www.w3.org/TR/2001/REC-SVG-20010904/DTD/svg10.dtd">
<svg version="1.0" xmlns="http://www.w3.org/2000/svg"
 width="700.000000pt" height="700.000000pt" viewBox="0 0 700.000000 700.000000"
 preserveAspectRatio="xMidYMid meet">
<metadata>
Created by potrace 1.11, written by Peter Selinger 2001-2013
</metadata>
<g transform="translate(0.000000,700.000000) scale(0.100000,-0.100000)"
fill="#000000" stroke="none">
<path d="M3063 5625 c-16 -7 -33 -18 -40 -26 -10 -13 -106 -176 -167 -282 -13
-23 -73 -127 -133 -232 -61 -104 -163 -282 -228 -395 -65 -113 -142 -247 -171
-298 -30 -50 -79 -136 -109 -190 -31 -53 -59 -104 -64 -112 -14 -23 -353 -610
-664 -1150 -336 -584 -354 -615 -382 -660 -42 -69 -57 -112 -52 -146 3 -18 30
-75 60 -126 30 -51 64 -109 75 -128 11 -19 53 -91 93 -160 40 -69 93 -161 118
-205 61 -107 71 -120 106 -137 26 -13 276 -15 2005 -14 1799 1 1978 2 2000 17
21 13 71 91 145 221 6 10 64 111 130 224 66 114 130 225 143 248 43 76 49 62
-218 521 -29 50 -62 108 -75 130 -18 33 -118 206 -343 595 -11 19 -60 105
-110 190 -156 271 -492 853 -702 1215 -111 193 -214 370 -228 395 -13 25 -39
70 -57 100 -73 123 -205 353 -205 357 0 8 -36 40 -55 48 -32 14 -840 13 -872
0z m627 -223 c0 -4 -6 -16 -14 -27 -12 -18 -177 -303 -229 -395 -10 -19 -23
-39 -27 -45 -4 -5 -19 -30 -32 -55 -29 -52 -258 -449 -473 -820 -81 -140 -158
-273 -171 -295 -12 -23 -135 -236 -274 -475 -233 -403 -251 -438 -246 -473 5
-44 35 -82 75 -94 14 -5 364 -9 778 -8 l752 0 123 -214 c68 -118 123 -219 123
-225 0 -8 -411 -11 -1356 -11 l-1357 0 16 30 c11 22 600 1044 701 1217 15 26
197 340 250 432 13 22 64 111 113 196 50 85 101 173 113 195 13 22 46 81 75
130 29 50 63 108 75 130 13 22 46 81 75 130 29 50 60 104 70 120 9 17 61 107
115 200 54 94 124 214 154 267 l56 98 258 0 c141 0 257 -3 257 -8z m286 -249
c43 -76 84 -147 90 -158 6 -11 77 -135 159 -275 82 -140 167 -289 190 -330 24
-41 88 -153 144 -249 55 -95 101 -175 101 -178 0 -2 8 -16 19 -31 10 -15 83
-139 162 -277 78 -137 197 -344 264 -460 176 -303 464 -802 493 -855 14 -25
36 -62 49 -82 12 -21 23 -40 23 -44 0 -3 9 -19 21 -35 l20 -29 -92 -157 c-51
-87 -108 -186 -128 -220 -19 -35 -38 -63 -41 -63 -3 0 -31 44 -62 98 -30 53
-227 394 -438 757 -211 363 -390 674 -400 690 -9 17 -117 203 -240 415 -123
212 -249 429 -279 482 -60 104 -90 130 -148 130 -51 0 -78 -25 -140 -132 -81
-140 -317 -549 -386 -670 -33 -58 -68 -118 -78 -135 -11 -16 -22 -36 -26 -44
-9 -20 -204 -355 -209 -360 -2 -2 -119 -5 -259 -5 -219 -1 -254 1 -250 13 3 8
141 249 307 535 526 909 550 950 569 984 39 67 375 648 413 712 15 25 34 60
43 78 9 17 20 32 23 32 4 0 42 -62 86 -137z m109 -1538 c40 -72 208 -359 226
-390 11 -16 22 -36 25 -44 4 -7 30 -52 57 -100 69 -119 58 -100 312 -541 125
-217 242 -420 260 -450 18 -30 44 -75 57 -100 14 -25 64 -112 112 -194 48 -82
93 -161 102 -177 l15 -29 -1818 0 -1818 0 -80 142 c-108 191 -128 227 -155
271 l-22 37 1481 0 1481 0 30 28 c22 19 33 39 37 69 5 39 -1 53 -97 220 -57
98 -112 194 -122 213 -49 86 -75 132 -133 230 -34 58 -76 130 -93 160 -16 30
-94 165 -171 299 -85 148 -137 249 -132 255 4 6 63 107 131 224 l122 213 85
-148 c47 -82 95 -166 108 -188z m-481 -519 c47 -82 84 -151 81 -154 -6 -6
-375 -8 -375 -2 0 3 15 30 33 62 18 31 59 104 92 162 46 81 62 103 71 93 6 -6
50 -79 98 -161z"/>
</g>
</svg>
