<?xml version="1.0" encoding="UTF-8" standalone="no"?>
<!DOCTYPE svg PUBLIC "-//W3C//DTD SVG 1.1//EN"
 "http://www.w3.org/Graphics/SVG/1.1/DTD/svg11.dtd">
<!-- Generated by graphviz version 2.40.1 (20161225.0304)
 -->
<!-- Title: dependencies Pages: 1 -->
<svg width="1710pt" height="284pt"
 viewBox="0.00 0.00 1710.00 284.00" xmlns="http://www.w3.org/2000/svg" xmlns:xlink="http://www.w3.org/1999/xlink">
<g id="graph0" class="graph" transform="scale(1 1) rotate(0) translate(4 280)">
<title>dependencies</title>
<polygon fill="#ffffff" stroke="transparent" points="-4,4 -4,-280 1706,-280 1706,4 -4,4"/>
<text text-anchor="start" x="830.0091" y="-42.4" font-family="sans-serif" font-weight="bold" font-size="14.00" fill="#000000">Legend</text>
<polygon fill="#ffffb3" stroke="transparent" points="617,-10 617,-30 637,-30 637,-10 617,-10"/>
<text text-anchor="start" x="640.629" y="-15.4" font-family="sans-serif" font-size="14.00" fill="#000000"> &#160;Declarations</text>
<polygon fill="#8dd3c7" stroke="transparent" points="730,-10 730,-30 750,-30 750,-10 730,-10"/>
<text text-anchor="start" x="753.7251" y="-15.4" font-family="sans-serif" font-size="14.00" fill="#000000"> &#160;Module</text>
<polygon fill="#80b1d3" stroke="transparent" points="816,-10 816,-30 836,-30 836,-10 816,-10"/>
<text text-anchor="start" x="839.7812" y="-15.4" font-family="sans-serif" font-size="14.00" fill="#000000"> &#160;Bootstrap</text>
<polygon fill="#fdb462" stroke="transparent" points="913,-10 913,-30 933,-30 933,-10 913,-10"/>
<text text-anchor="start" x="936.6732" y="-15.4" font-family="sans-serif" font-size="14.00" fill="#000000"> &#160;Providers</text>
<polygon fill="#fb8072" stroke="transparent" points="1009,-10 1009,-30 1029,-30 1029,-10 1009,-10"/>
<text text-anchor="start" x="1032.7258" y="-15.4" font-family="sans-serif" font-size="14.00" fill="#000000"> &#160;Exports</text>
<g id="clust1" class="cluster">
<title>cluster_AppModule</title>
<polygon fill="none" stroke="#000000" stroke-dasharray="1,5" points="8,-70 8,-268 1694,-268 1694,-70 8,-70"/>
</g>
<g id="clust2" class="cluster">
<title>cluster_AppModule_declarations</title>
<polygon fill="none" stroke="#000000" points="1564,-78 1564,-130 1686,-130 1686,-78 1564,-78"/>
</g>
<g id="clust4" class="cluster">
<title>cluster_AppModule_imports</title>
<polygon fill="none" stroke="#000000" points="16,-78 16,-130 1556,-130 1556,-78 16,-78"/>
</g>
<g id="clust6" class="cluster">
<title>cluster_AppModule_bootstrap</title>
<polygon fill="none" stroke="#000000" points="821,-208 821,-260 945,-260 945,-208 821,-208"/>
</g>
<!-- AppComponent -->
<g id="node1" class="node">
<title>AppComponent</title>
<polygon fill="#ffffb3" stroke="#000000" points="1677.9399,-122 1572.0601,-122 1572.0601,-86 1677.9399,-86 1677.9399,-122"/>
<text text-anchor="middle" x="1625" y="-99.8" font-family="Times,serif" font-size="14.00" fill="#000000">AppComponent</text>
</g>
<!-- AppModule -->
<g id="node2" class="node">
<title>AppModule</title>
<polygon fill="#8dd3c7" stroke="#000000" points="924.6571,-187 921.6571,-191 900.6571,-191 897.6571,-187 841.3429,-187 841.3429,-151 924.6571,-151 924.6571,-187"/>
<text text-anchor="middle" x="883" y="-164.8" font-family="Times,serif" font-size="14.00" fill="#000000">AppModule</text>
</g>
<!-- AppComponent&#45;&gt;AppModule -->
<g id="edge1" class="edge">
<title>AppComponent&#45;&gt;AppModule</title>
<path fill="none" stroke="#000000" d="M1625,-122.0109C1625,-144.4852 1625,-180 1625,-180 1625,-180 934.7507,-180 934.7507,-180"/>
<polygon fill="#000000" stroke="#000000" points="934.7508,-176.5001 924.7507,-180 934.7507,-183.5001 934.7508,-176.5001"/>
</g>
<!-- AppComponent  -->
<g id="node12" class="node">
<title>AppComponent </title>
<polygon fill="#80b1d3" stroke="#000000" points="937.439,-252 828.561,-252 828.561,-216 937.439,-216 937.439,-252"/>
<text text-anchor="middle" x="883" y="-229.8" font-family="Times,serif" font-size="14.00" fill="#000000">AppComponent </text>
</g>
<!-- AppModule&#45;&gt;AppComponent  -->
<g id="edge11" class="edge">
<title>AppModule&#45;&gt;AppComponent </title>
<path fill="none" stroke="#000000" stroke-dasharray="1,5" d="M883,-187.1061C883,-187.1061 883,-205.991 883,-205.991"/>
<polygon fill="#000000" stroke="#000000" points="879.5001,-205.9909 883,-215.991 886.5001,-205.991 879.5001,-205.9909"/>
</g>
<!-- CoreModule -->
<g id="node3" class="node">
<title>CoreModule</title>
<polygon fill="#8dd3c7" stroke="#000000" points="1548.2619,-122 1545.2619,-126 1524.2619,-126 1521.2619,-122 1461.7381,-122 1461.7381,-86 1548.2619,-86 1548.2619,-122"/>
<text text-anchor="middle" x="1505" y="-99.8" font-family="Times,serif" font-size="14.00" fill="#000000">CoreModule</text>
</g>
<!-- CoreModule&#45;&gt;AppModule -->
<g id="edge2" class="edge">
<title>CoreModule&#45;&gt;AppModule</title>
<path fill="none" stroke="#000000" d="M1505,-122.1289C1505,-142.5724 1505,-173 1505,-173 1505,-173 934.777,-173 934.777,-173"/>
<polygon fill="#000000" stroke="#000000" points="934.777,-169.5001 924.777,-173 934.777,-176.5001 934.777,-169.5001"/>
</g>
<!-- SharedModule -->
<g id="node4" class="node">
<title>SharedModule</title>
<polygon fill="#8dd3c7" stroke="#000000" points="1443.4231,-122 1440.4231,-126 1419.4231,-126 1416.4231,-122 1344.5769,-122 1344.5769,-86 1443.4231,-86 1443.4231,-122"/>
<text text-anchor="middle" x="1394" y="-99.8" font-family="Times,serif" font-size="14.00" fill="#000000">SharedModule</text>
</g>
<!-- SharedModule&#45;&gt;AppModule -->
<g id="edge3" class="edge">
<title>SharedModule&#45;&gt;AppModule</title>
<path fill="none" stroke="#000000" d="M1394,-122.2667C1394,-140.5552 1394,-166 1394,-166 1394,-166 934.8173,-166 934.8173,-166"/>
<polygon fill="#000000" stroke="#000000" points="934.8173,-162.5001 924.8173,-166 934.8172,-169.5001 934.8173,-162.5001"/>
</g>
<!-- BrowserModule.withServerTransition(args) -->
<g id="node5" class="node">
<title>BrowserModule.withServerTransition(args)</title>
<polygon fill="#8dd3c7" stroke="#000000" points="1327.0794,-122 1324.0794,-126 1303.0794,-126 1300.0794,-122 1064.9206,-122 1064.9206,-86 1327.0794,-86 1327.0794,-122"/>
<text text-anchor="middle" x="1196" y="-99.8" font-family="Times,serif" font-size="14.00" fill="#000000">BrowserModule.withServerTransition(args)</text>
</g>
<!-- BrowserModule.withServerTransition(args)&#45;&gt;AppModule -->
<g id="edge4" class="edge">
<title>BrowserModule.withServerTransition(args)&#45;&gt;AppModule</title>
<path fill="none" stroke="#000000" d="M1196,-122.0091C1196,-138.0494 1196,-159 1196,-159 1196,-159 934.8878,-159 934.8878,-159"/>
<polygon fill="#000000" stroke="#000000" points="934.8878,-155.5001 924.8878,-159 934.8878,-162.5001 934.8878,-155.5001"/>
</g>
<!-- TransferHttpCacheModule -->
<g id="node6" class="node">
<title>TransferHttpCacheModule</title>
<polygon fill="#8dd3c7" stroke="#000000" points="1047.3263,-122 1044.3263,-126 1023.3263,-126 1020.3263,-122 880.6737,-122 880.6737,-86 1047.3263,-86 1047.3263,-122"/>
<text text-anchor="middle" x="964" y="-99.8" font-family="Times,serif" font-size="14.00" fill="#000000">TransferHttpCacheModule</text>
</g>
<!-- TransferHttpCacheModule&#45;&gt;AppModule -->
<g id="edge5" class="edge">
<title>TransferHttpCacheModule&#45;&gt;AppModule</title>
<path fill="none" stroke="#000000" d="M902.7076,-122.1061C902.7076,-122.1061 902.7076,-140.991 902.7076,-140.991"/>
<polygon fill="#000000" stroke="#000000" points="899.2076,-140.9909 902.7076,-150.991 906.2076,-140.991 899.2076,-140.9909"/>
</g>
<!-- HttpClientModule -->
<g id="node7" class="node">
<title>HttpClientModule</title>
<polygon fill="#8dd3c7" stroke="#000000" points="862.1611,-122 859.1611,-126 838.1611,-126 835.1611,-122 743.8389,-122 743.8389,-86 862.1611,-86 862.1611,-122"/>
<text text-anchor="middle" x="803" y="-99.8" font-family="Times,serif" font-size="14.00" fill="#000000">HttpClientModule</text>
</g>
<!-- HttpClientModule&#45;&gt;AppModule -->
<g id="edge6" class="edge">
<title>HttpClientModule&#45;&gt;AppModule</title>
<path fill="none" stroke="#000000" d="M851.7511,-122.1061C851.7511,-122.1061 851.7511,-140.991 851.7511,-140.991"/>
<polygon fill="#000000" stroke="#000000" points="848.2511,-140.9909 851.7511,-150.991 855.2511,-140.991 848.2511,-140.9909"/>
</g>
<!-- AppRoutingModule -->
<g id="node8" class="node">
<title>AppRoutingModule</title>
<polygon fill="#8dd3c7" stroke="#000000" points="725.2744,-122 722.2744,-126 701.2744,-126 698.2744,-122 596.7256,-122 596.7256,-86 725.2744,-86 725.2744,-122"/>
<text text-anchor="middle" x="661" y="-99.8" font-family="Times,serif" font-size="14.00" fill="#000000">AppRoutingModule</text>
</g>
<!-- AppRoutingModule&#45;&gt;AppModule -->
<g id="edge7" class="edge">
<title>AppRoutingModule&#45;&gt;AppModule</title>
<path fill="none" stroke="#000000" d="M661,-122.0091C661,-138.0494 661,-159 661,-159 661,-159 831.2435,-159 831.2435,-159"/>
<polygon fill="#000000" stroke="#000000" points="831.2435,-162.5001 841.2435,-159 831.2435,-155.5001 831.2435,-162.5001"/>
</g>
<!-- BrowserAnimationsModule -->
<g id="node9" class="node">
<title>BrowserAnimationsModule</title>
<polygon fill="#8dd3c7" stroke="#000000" points="578.3019,-122 575.3019,-126 554.3019,-126 551.3019,-122 405.6981,-122 405.6981,-86 578.3019,-86 578.3019,-122"/>
<text text-anchor="middle" x="492" y="-99.8" font-family="Times,serif" font-size="14.00" fill="#000000">BrowserAnimationsModule</text>
</g>
<!-- BrowserAnimationsModule&#45;&gt;AppModule -->
<g id="edge8" class="edge">
<title>BrowserAnimationsModule&#45;&gt;AppModule</title>
<path fill="none" stroke="#000000" d="M492,-122.2667C492,-140.5552 492,-166 492,-166 492,-166 831.1562,-166 831.1562,-166"/>
<polygon fill="#000000" stroke="#000000" points="831.1562,-169.5001 841.1562,-166 831.1561,-162.5001 831.1562,-169.5001"/>
</g>
<!-- FlexLayoutModule -->
<g id="node10" class="node">
<title>FlexLayoutModule</title>
<polygon fill="#8dd3c7" stroke="#000000" points="388.0954,-122 385.0954,-126 364.0954,-126 361.0954,-122 263.9046,-122 263.9046,-86 388.0954,-86 388.0954,-122"/>
<text text-anchor="middle" x="326" y="-99.8" font-family="Times,serif" font-size="14.00" fill="#000000">FlexLayoutModule</text>
</g>
<!-- FlexLayoutModule&#45;&gt;AppModule -->
<g id="edge9" class="edge">
<title>FlexLayoutModule&#45;&gt;AppModule</title>
<path fill="none" stroke="#000000" d="M326,-122.1289C326,-142.5724 326,-173 326,-173 326,-173 831.1345,-173 831.1345,-173"/>
<polygon fill="#000000" stroke="#000000" points="831.1345,-176.5001 841.1345,-173 831.1344,-169.5001 831.1345,-176.5001"/>
</g>
<!-- ServiceWorkerModule.register(args) -->
<g id="node11" class="node">
<title>ServiceWorkerModule.register(args)</title>
<polygon fill="#8dd3c7" stroke="#000000" points="246.3954,-122 243.3954,-126 222.3954,-126 219.3954,-122 23.6046,-122 23.6046,-86 246.3954,-86 246.3954,-122"/>
<text text-anchor="middle" x="135" y="-99.8" font-family="Times,serif" font-size="14.00" fill="#000000">ServiceWorkerModule.register(args)</text>
</g>
<!-- ServiceWorkerModule.register(args)&#45;&gt;AppModule -->
<g id="edge10" class="edge">
<title>ServiceWorkerModule.register(args)&#45;&gt;AppModule</title>
<path fill="none" stroke="#000000" d="M135,-122.0109C135,-144.4852 135,-180 135,-180 135,-180 831.1815,-180 831.1815,-180"/>
<polygon fill="#000000" stroke="#000000" points="831.1815,-183.5001 841.1815,-180 831.1814,-176.5001 831.1815,-183.5001"/>
</g>
</g>
</svg>
